<?xml version="1.0" encoding="UTF-8"?>
<svg version="1.1" xmlns="http://www.w3.org/2000/svg" width="900" height="500">
<path d="M0 0 C1.62005855 -0.00708904 3.24010483 -0.01767425 4.86012071 -0.03140372 C9.26494411 -0.05872724 13.66829581 -0.03685081 18.0730449 -0.00613844 C22.84138563 0.0182987 27.60955386 -0.00375959 32.37789917 -0.01974487 C41.70018817 -0.04367419 51.02191945 -0.02500826 60.34415967 0.00863131 C71.21396334 0.04639747 82.08363966 0.04289941 92.95349365 0.03819207 C112.35529528 0.03132261 131.75683452 0.06372858 151.15855408 0.11750793 C169.95973335 0.16960493 188.76062555 0.19085103 207.56187439 0.17903137 C228.06579808 0.16619266 248.56959945 0.16888659 269.0735082 0.19987661 C270.70175927 0.20233393 270.70175927 0.20233393 272.36290429 0.2048409 C274.54269265 0.20813155 276.72248097 0.21145331 278.90226923 0.21480658 C286.46863138 0.2255546 294.03495269 0.22586358 301.60132027 0.22250938 C310.82874415 0.21893764 320.05592816 0.23398179 329.28327734 0.2720693 C333.98599199 0.2910962 338.68836752 0.30243294 343.3911171 0.29198837 C347.70487335 0.28266922 352.01792284 0.29681799 356.33156412 0.32888905 C357.88314115 0.33649066 359.43478715 0.33591397 360.98635007 0.32583561 C376.48965257 0.23470117 391.11243335 3.9997061 403.29502869 13.99568176 C404.38815369 14.53193176 405.48127869 15.06818176 406.60752869 15.62068176 C411.69753077 18.40112343 415.11384308 23.25282323 418.29502869 27.99568176 C418.29502869 28.65568176 418.29502869 29.31568176 418.29502869 29.99568176 C418.87123962 30.21997864 419.44745056 30.44427551 420.04112244 30.67536926 C426.98129803 34.74084474 430.95788729 43.59473401 433.29502869 50.99568176 C434.56711312 54.1916789 434.56711312 54.1916789 437.29502869 55.99568176 C438.3103241 58.32240041 439.30991066 60.65602646 440.29502869 62.99568176 C440.95502869 63.65568176 441.61502869 64.31568176 442.29502869 64.99568176 C442.56444275 65.73044739 442.83385681 66.46521301 443.11143494 67.22224426 C444.87349701 71.35116859 447.74851533 74.56480816 450.57432556 78.00349426 C453.60769726 81.80085973 455.44020441 85.46446701 457.29502869 89.99568176 C458.6053959 92.29206787 459.95976441 94.56392099 461.35752869 96.80818176 C462.04975525 97.92837708 462.74198181 99.04857239 463.45518494 100.20271301 C465.16019948 102.99519463 465.16019948 102.99519463 467.29502869 104.99568176 C467.94747748 106.57529463 468.59869057 108.1554273 469.24424744 109.73786926 C471.08855312 113.70072683 473.43091058 117.38451066 475.66612244 121.13630676 C476.92155342 123.34008489 477.95535417 125.39030397 478.85752869 127.74568176 C480.43181635 131.30494084 482.42785667 133.9659406 484.81065369 137.01521301 C486.94804303 139.86694037 488.58452906 142.86959624 490.29502869 145.99568176 C491.16127869 147.35693176 491.16127869 147.35693176 492.04502869 148.74568176 C493.29502869 150.99568176 493.29502869 150.99568176 493.29502869 153.99568176 C493.95502869 153.99568176 494.61502869 153.99568176 495.29502869 153.99568176 C504.29502869 165.27701881 504.29502869 165.27701881 504.29502869 170.99568176 C504.85190369 171.03306458 505.40877869 171.07044739 505.98252869 171.10896301 C511.58128293 171.59128812 516.11168233 172.82810056 521.29502869 174.99568176 C521.29502869 175.65568176 521.29502869 176.31568176 521.29502869 176.99568176 C522.34690369 177.28443176 523.39877869 177.57318176 524.48252869 177.87068176 C527.5232158 178.7679337 530.38215212 179.75991595 533.29502869 180.99568176 C533.29502869 181.65568176 533.29502869 182.31568176 533.29502869 182.99568176 C534.34690369 183.05755676 535.39877869 183.11943176 536.48252869 183.18318176 C545.39319298 184.32637771 553.5819957 188.54441167 561.48252869 192.62068176 C565.43016731 194.64902647 569.13516359 196.39955424 573.42002869 197.55818176 C583.11421503 200.18900536 591.1848077 204.96833049 598.29502869 211.99568176 C599.65627869 213.26411926 599.65627869 213.26411926 601.04502869 214.55818176 C605.06842699 218.91686325 607.79301445 223.756217 610.35362244 229.05818176 C611.16426182 230.72655161 612.03657876 232.36469728 612.92002869 233.99568176 C616.02848823 240.77777532 616.68363704 247.32378598 616.67002869 254.68318176 C616.66761169 256.10824036 616.66761169 256.10824036 616.66514587 257.56208801 C616.51824346 266.52601585 615.33036472 275.25278405 614.00401306 284.10749817 C612.4442532 294.56794343 611.25211999 305.03885837 610.17002869 315.55818176 C610.08500092 316.37746155 609.99997314 317.19674133 609.91236877 318.04084778 C609.1409071 325.47955307 608.38426573 332.9189907 607.70518494 340.36677551 C606.84222323 349.77973575 605.57670276 358.80814081 603.29502869 367.99568176 C602.63502869 367.99568176 601.97502869 367.99568176 601.29502869 367.99568176 C601.04752869 368.86193176 600.80002869 369.72818176 600.54502869 370.62068176 C597.66925179 378.38527938 592.86184936 382.34839329 586.29502869 386.99568176 C585.45713806 387.60927551 584.61924744 388.22286926 583.75596619 388.85505676 C571.1955375 397.52508718 558.63672741 398.588834 543.92002869 398.24568176 C542.39401092 398.22555132 540.86796699 398.2073123 539.34190369 398.19099426 C535.65905431 398.14759635 531.97721858 398.07894575 528.29502869 397.99568176 C528.31774841 398.77201965 528.34046814 399.54835754 528.36387634 400.34822083 C528.28003237 403.57234872 527.3927096 405.04239786 525.67002869 407.74568176 C524.84051697 409.05472473 524.84051697 409.05472473 523.99424744 410.39021301 C523.43350525 411.2500177 522.87276306 412.10982239 522.29502869 412.99568176 C521.827099 413.74204895 521.35916931 414.48841614 520.87705994 415.25740051 C515.15677522 424.18232652 508.65968445 432.44141242 500.29502869 438.99568176 C498.43924634 440.51454316 496.58520678 442.0355354 494.73252869 443.55818176 C493.78506775 444.32646301 492.83760681 445.09474426 491.86143494 445.88630676 C489.91453191 447.48650103 488.03923956 449.12120593 486.17002869 450.80818176 C483.02470391 453.20136366 479.96086804 454.5862441 476.33018494 456.08943176 C474.04393844 457.10749162 472.28197257 458.48834502 470.29502869 459.99568176 C468.31518388 460.72001523 466.30919431 461.37312148 464.29502869 461.99568176 C461.55142182 463.01788998 458.81250184 464.05152891 456.07627869 465.09333801 C448.55254047 467.53432611 440.7950238 467.21592938 432.97520447 467.23591614 C430.69731844 467.24556615 428.42035771 467.27660908 426.14268494 467.30818176 C414.48700597 467.39472517 404.26158673 465.96901946 393.79502869 460.49568176 C392.65034119 459.90786926 391.50565369 459.32005676 390.32627869 458.71443176 C387.79220931 457.2775883 385.60661287 455.74761925 383.29502869 453.99568176 C381.90567452 453.31561548 380.50946844 452.64940959 379.10752869 451.99568176 C373.99800752 449.21476204 370.98389288 445.38509966 367.49034119 440.80818176 C365.49488126 438.25172065 363.39204509 436.03888454 361.10752869 433.74568176 C355.97249238 428.05827103 353.77506014 421.10356008 351.29502869 413.99568176 C350.95342712 413.09849426 350.61182556 412.20130676 350.25987244 411.27693176 C348.41946318 406.27786661 348.29502869 403.79549616 348.29502869 397.99568176 C274.04502869 397.99568176 199.79502869 397.99568176 123.29502869 397.99568176 C123.29502869 399.64568176 123.29502869 401.29568176 123.29502869 402.99568176 C122.54820251 405.04450989 122.54820251 405.04450989 121.50205994 407.02693176 C120.9268158 408.11941223 120.9268158 408.11941223 120.33995056 409.23396301 C119.93325134 409.9803302 119.52655212 410.72669739 119.10752869 411.49568176 C118.72016541 412.24204895 118.33280212 412.98841614 117.93370056 413.75740051 C115.54873088 418.21197199 113.05453052 421.54423275 109.29502869 424.99568176 C108.57315369 425.92380676 107.85127869 426.85193176 107.10752869 427.80818176 C106.50940369 428.53005676 105.91127869 429.25193176 105.29502869 429.99568176 C104.63502869 429.99568176 103.97502869 429.99568176 103.29502869 429.99568176 C103.25377869 430.55255676 103.21252869 431.10943176 103.17002869 431.68318176 C101.80525761 435.29007676 99.38422693 436.72606673 96.29502869 438.99568176 C95.63502869 438.99568176 94.97502869 438.99568176 94.29502869 438.99568176 C93.97598572 439.82906067 93.97598572 439.82906067 93.65049744 440.67927551 C91.83609495 443.7799691 89.3478369 445.80998302 86.60752869 448.05818176 C86.10286072 448.49195129 85.59819275 448.92572083 85.07823181 449.37263489 C81.38885655 452.43700852 77.72028817 454.21645372 73.29502869 455.99568176 C71.65863523 456.93442785 70.0330371 457.89229961 68.42002869 458.87068176 C55.52614476 465.88308434 42.54331628 467.81104855 28.06407166 467.59260559 C25.53186687 467.5580019 23.00311985 467.57210829 20.47080994 467.59138489 C0.92560179 467.57566909 -17.88721963 460.76296663 -32.51747131 447.43318176 C-38.70497131 440.53853891 -38.70497131 440.53853891 -38.70497131 437.99568176 C-39.29536194 437.75075989 -39.88575256 437.50583801 -40.49403381 437.25349426 C-49.52311328 432.11680948 -52.51515866 419.18984763 -55.70497131 409.99568176 C-56.28311584 408.73691223 -56.28311584 408.73691223 -56.87294006 407.45271301 C-57.95800944 404.24844711 -57.75722029 401.3580135 -57.70497131 397.99568176 C-58.39242432 398.00678482 -59.07987732 398.01788788 -59.78816223 398.02932739 C-66.31826527 398.1301879 -72.84814586 398.20597653 -79.37885666 398.25474262 C-82.73526437 398.28065946 -86.09053281 398.31848291 -89.44667053 398.37287903 C-93.31939905 398.43404252 -97.19122019 398.46201024 -101.06434631 398.48396301 C-102.84165131 398.52267265 -102.84165131 398.52267265 -104.65486145 398.56216431 C-114.05129455 398.56527637 -122.32275928 396.59617108 -129.70497131 390.53083801 C-130.36497131 389.71486145 -131.02497131 388.89888489 -131.70497131 388.05818176 C-132.38559631 387.24478333 -133.06622131 386.43138489 -133.76747131 385.59333801 C-134.40684631 384.73611145 -135.04622131 383.87888489 -135.70497131 382.99568176 C-136.77618225 381.57449036 -136.77618225 381.57449036 -137.86903381 380.12458801 C-146.02392896 366.22656458 -140.60288629 344.88078341 -137.76747131 330.05818176 C-137.53133118 328.80666321 -137.53133118 328.80666321 -137.29042053 327.52986145 C-135.8165868 320.35690888 -133.54150738 316.29810429 -127.64247131 311.74568176 C-126.32569397 310.71700989 -126.32569397 310.71700989 -124.98231506 309.66755676 C-120.69690717 306.52149402 -117.92599522 306.9114717 -112.70497131 306.99568176 C-112.70497131 305.67568176 -112.70497131 304.35568176 -112.70497131 302.99568176 C-112.04497131 302.99568176 -111.38497131 302.99568176 -110.70497131 302.99568176 C-110.70497131 300.68568176 -110.70497131 298.37568176 -110.70497131 295.99568176 C-110.04497131 295.99568176 -109.38497131 295.99568176 -108.70497131 295.99568176 C-108.6675885 294.78396301 -108.63020569 293.57224426 -108.59169006 292.32380676 C-108.13557657 280.03717215 -106.7548319 268.11435444 -104.70497131 255.99568176 C-106.51829286 256.30337883 -108.33061477 256.6169724 -110.14247131 256.93318176 C-111.15180725 257.1072052 -112.16114319 257.28122864 -113.20106506 257.46052551 C-115.63371511 257.74319273 -115.63371511 257.74319273 -116.70497131 258.99568176 C-118.62009484 259.12117042 -120.53985074 259.17646545 -122.45887756 259.204422 C-123.69106018 259.22371262 -124.9232428 259.24300323 -126.19276428 259.26287842 C-127.55098927 259.27769244 -128.90922596 259.29146479 -130.26747131 259.30427551 C-131.29182281 259.31413325 -131.29182281 259.31413325 -132.33686829 259.32419014 C-135.95873441 259.3568343 -139.58057071 259.3812605 -143.20252991 259.40071106 C-146.19027696 259.41845331 -149.17706742 259.45314754 -152.16444397 259.50325012 C-155.77727778 259.5637721 -159.38923164 259.59423162 -163.00254822 259.60388374 C-164.37401048 259.61239456 -165.74545206 259.63110421 -167.11662292 259.66062737 C-175.94376409 259.84029372 -182.06478559 259.13542425 -188.70497131 252.99568176 C-191.92373887 249.1417934 -192.11222969 246.00984296 -192.07997131 241.05818176 C-192.08770569 239.87353333 -192.09544006 238.68888489 -192.10340881 237.46833801 C-191.38613258 231.21678339 -188.57871665 227.47325757 -184.14247131 223.18318176 C-183.35743225 222.41361145 -182.57239319 221.64404114 -181.76356506 220.85115051 C-178.03943307 217.49448506 -174.83087449 217.85920844 -170.04237366 217.88215637 C-169.25204239 217.88201035 -168.46171112 217.88186432 -167.64743042 217.88171387 C-165.02856221 217.88241193 -162.40976464 217.89019937 -159.79090881 217.89802551 C-157.97772765 217.89989007 -156.16454598 217.90131379 -154.35136414 217.90231323 C-149.57393508 217.90613544 -144.79653633 217.91596322 -140.01911926 217.92701721 C-135.14617828 217.93723769 -130.27323242 217.94181222 -125.40028381 217.94685364 C-115.83516632 217.95758573 -106.27007133 217.97465862 -96.70497131 217.99568176 C-96.5473381 216.88696716 -96.3897049 215.77825256 -96.22729492 214.63594055 C-95.64455157 210.57459509 -94.97237815 206.53714763 -94.26747131 202.49568176 C-94.14565491 201.77509583 -94.0238385 201.05450989 -93.89833069 200.31208801 C-93.10564967 195.76957397 -92.00437527 191.42593306 -90.70497131 186.99568176 C-90.20507459 184.79194855 -89.72607441 182.58337695 -89.26747131 180.37068176 C-88.0670322 174.66407172 -86.78634172 168.98248606 -85.45887756 163.30427551 C-84.38976709 158.61237618 -83.41788491 153.90101754 -82.45106506 149.18708801 C-81.71442699 146.03612829 -80.73238498 143.06241463 -79.70497131 139.99568176 C-79.33883086 138.60087926 -78.98433727 137.20297838 -78.64027405 135.80256653 C-78.33162415 134.54629456 -78.02297424 133.29002258 -77.70497131 131.99568176 C-78.72925735 132.0023436 -79.7535434 132.00900543 -80.80886841 132.01586914 C-90.47516069 132.07675906 -100.1414139 132.12169224 -109.80785465 132.15111828 C-114.77714105 132.16675522 -119.74627226 132.18795752 -124.71546936 132.22200012 C-129.51356971 132.25466382 -134.31152106 132.27254961 -139.10972404 132.28031349 C-140.93770632 132.28584442 -142.7656807 132.29664498 -144.59359932 132.31287193 C-147.15962798 132.33473951 -149.72504568 132.33764481 -152.29115295 132.33625793 C-153.04209732 132.34704376 -153.79304169 132.35782959 -154.56674194 132.36894226 C-161.32067538 132.32960148 -167.30938795 130.30504649 -172.47059631 125.69880676 C-175.19080568 121.9456065 -175.62415073 117.52785154 -175.70497131 112.99568176 C-174.76059396 107.33824361 -172.34995569 102.40803128 -168.70497131 97.99568176 C-168.22242386 97.40564865 -167.7398764 96.81561554 -167.2427063 96.20770264 C-161.29080126 90.33345833 -155.41868834 90.23376857 -147.50174046 90.18369961 C-144.56744008 90.20321136 -141.63489707 90.2570803 -138.70106506 90.31208801 C-136.65128272 90.32515848 -134.60147837 90.3351158 -132.55166626 90.34210205 C-127.18024862 90.36871345 -121.81017514 90.43737632 -116.43928528 90.51502991 C-110.94925618 90.58688866 -105.45900794 90.61866182 -99.96864319 90.65388489 C-89.21349826 90.72875387 -78.45934696 90.84808384 -67.70497131 90.99568176 C-67.71524353 89.09205872 -67.71524353 89.09205872 -67.72572327 87.14997864 C-67.74190976 84.15033617 -67.58608947 81.42805119 -66.89247131 78.49568176 C-66.741651 77.82536926 -66.59083069 77.15505676 -66.43544006 76.46443176 C-65.70497131 73.99568176 -65.70497131 73.99568176 -64.22059631 70.33161926 C-62.44323767 65.67371386 -61.86499315 61.04649068 -61.26747131 56.12068176 C-59.37453441 42.39688924 -54.78143674 30.9024383 -44.70497131 20.99568176 C-44.11715881 19.85099426 -44.11715881 19.85099426 -43.51747131 18.68318176 C-34.05223467 4.64852053 -15.82907642 -0.22200786 0 0 Z M-17.70497131 45.99568176 C-20.00574304 49.10879529 -20.00574304 49.10879529 -20.70497131 52.74568176 C-20.96274353 53.69882263 -20.96274353 53.69882263 -21.22572327 54.67121887 C-21.7753748 56.76981932 -22.24469647 58.87578467 -22.70497131 60.99568176 C-23.07271028 62.5856993 -23.44121922 64.17553893 -23.81044006 65.76521301 C-24.51289363 68.83689603 -25.17462152 71.91350808 -25.81044006 74.99958801 C-26.34321607 77.53206588 -26.97954094 79.81162895 -27.81044006 82.28083801 C-28.90706272 85.60901593 -28.84418221 88.51540932 -28.70497131 91.99568176 C-29.36497131 91.99568176 -30.02497131 91.99568176 -30.70497131 91.99568176 C-30.82872131 93.00630676 -30.95247131 94.01693176 -31.07997131 95.05818176 C-31.70497131 98.99568176 -31.70497131 98.99568176 -32.61512756 102.14802551 C-33.86640696 106.56562481 -34.83401763 111.00232678 -35.76747131 115.49568176 C-36.02753967 116.71964661 -36.02753967 116.71964661 -36.29286194 117.96833801 C-37.26960895 122.63127586 -38.0890368 127.27140053 -38.70497131 131.99568176 C-39.36497131 131.99568176 -40.02497131 131.99568176 -40.70497131 131.99568176 C-40.89833069 133.1906427 -41.09169006 134.38560364 -41.29090881 135.61677551 C-44.36078427 154.42544582 -44.36078427 154.42544582 -46.64247131 162.18318176 C-49.14974994 171.17988742 -50.78095868 180.2702123 -52.14247131 189.49568176 C-53.18594758 196.52807942 -54.68179183 203.13203159 -56.83778381 209.91755676 C-57.77944466 213.26002859 -58.22279576 216.56123833 -58.70497131 219.99568176 C-59.03497131 220.32568176 -59.36497131 220.65568176 -59.70497131 220.99568176 C-60.22427034 223.68119957 -60.69993864 226.35986715 -61.14247131 229.05818176 C-62.26654513 235.8799419 -63.53587966 242.5571769 -65.76747131 249.12068176 C-66.92028679 253.88565242 -67.1407768 258.50966835 -67.36122131 263.39802551 C-67.68097766 266.74456641 -68.3245311 269.69044407 -69.18348694 272.92121887 C-70.0863579 276.51283618 -70.65022521 280.14896935 -71.20497131 283.80818176 C-71.33315247 284.64985901 -71.46133362 285.49153625 -71.59339905 286.35871887 C-72.83381903 295.01829864 -73.44664584 303.71327562 -73.97059631 312.44221497 C-75.12639834 330.73196427 -75.12639834 330.73196427 -78.95497131 336.22224426 C-84.48177456 341.04249596 -88.39651511 344.10514224 -95.90419006 344.12849426 C-96.79557678 344.06275208 -96.79557678 344.06275208 -97.70497131 343.99568176 C-99.11373536 348.2219739 -98.70497131 351.10471928 -98.70497131 355.99568176 C-84.18497131 355.99568176 -69.66497131 355.99568176 -54.70497131 355.99568176 C-53.71497131 353.02568176 -52.72497131 350.05568176 -51.70497131 346.99568176 C-43.29835633 324.71815207 -24.46941416 304.35624881 -2.94325256 294.13240051 C0.9447814 292.15784923 4.63986455 289.84457457 8.36534119 287.58161926 C27.45774388 277.24626527 56.40111875 278.19261024 76.71299744 283.84724426 C81.15528522 285.2714892 85.19656455 286.76015587 89.29502869 288.99568176 C89.62502869 289.65568176 89.95502869 290.31568176 90.29502869 290.99568176 C91.01690369 291.26380676 91.73877869 291.53193176 92.48252869 291.80818176 C95.0474862 292.89116382 96.4266983 293.83190777 98.48252869 295.62068176 C100.93618223 298.21074204 100.93618223 298.21074204 103.29502869 297.99568176 C103.50901306 298.54740051 103.72299744 299.09911926 103.94346619 299.66755676 C105.4049985 302.18510953 107.1823855 303.86125203 109.33213806 305.7993927 C123.99945935 319.15874253 128.37419819 336.78737678 130.29502869 355.99568176 C203.22502869 355.99568176 276.15502869 355.99568176 351.29502869 355.99568176 C352.28502869 352.03568176 353.27502869 348.07568176 354.29502869 343.99568176 C355.69766819 340.99925114 357.05044025 338.30384275 358.73252869 335.49568176 C359.30583923 334.48247864 359.30583923 334.48247864 359.89073181 333.44880676 C362.01151401 329.79054749 364.17505148 326.89518949 367.29502869 323.99568176 C369.60969476 320.75661167 369.60969476 320.75661167 370.29502869 316.99568176 C370.88413025 316.72368958 371.47323181 316.45169739 372.08018494 316.17146301 C376.58167259 313.78178438 380.21324348 310.07746697 383.79502869 306.49568176 C388.93863588 301.35207457 393.41274406 297.52386795 400.29502869 294.99568176 C400.29502869 294.33568176 400.29502869 293.67568176 400.29502869 292.99568176 C400.95502869 292.93380676 401.61502869 292.87193176 402.29502869 292.80818176 C405.12633368 292.04136999 406.39712492 291.32047558 408.73252869 289.68318176 C422.12378952 281.01383939 442.76427224 279.25080136 458.29502869 279.99568176 C459.28760681 280.02661926 460.28018494 280.05755676 461.30284119 280.08943176 C472.56942894 280.69031644 483.40430879 283.5654826 493.29502869 288.99568176 C493.95502869 288.99568176 494.61502869 288.99568176 495.29502869 288.99568176 C495.29502869 289.65568176 495.29502869 290.31568176 495.29502869 290.99568176 C496.36752869 291.59380676 497.44002869 292.19193176 498.54502869 292.80818176 C500.6995651 294.03126203 502.62567314 295.24589919 504.60752869 296.74568176 C506.21287488 298.19409095 506.21287488 298.19409095 508.29502869 297.99568176 C508.52190369 298.53193176 508.74877869 299.06818176 508.98252869 299.62068176 C511.56361797 304.29122428 514.82442563 307.68466375 518.98252869 310.93318176 C522.56687509 313.90857469 523.21349534 316.43779121 524.29502869 320.99568176 C525.06862696 322.4750188 525.88468943 323.93260633 526.73252869 325.37068176 C532.19339742 334.94721989 533.55564757 345.25099418 535.29502869 355.99568176 C538.64917667 356.02498154 542.00329122 356.04258066 545.35752869 356.05818176 C546.30047791 356.06656067 547.24342712 356.07493958 548.21495056 356.08357239 C553.34071891 356.10143221 558.26889134 356.06122288 563.29502869 354.99568176 C566.79998032 351.12814893 567.37994736 345.98703447 568.29502869 340.99568176 C568.57539978 339.59575989 568.57539978 339.59575989 568.86143494 338.16755676 C569.04577087 337.18271301 569.23010681 336.19786926 569.42002869 335.18318176 C569.58760681 334.28986145 569.75518494 333.39654114 569.92784119 332.47615051 C570.47196732 327.3185294 570.36123227 322.17689999 570.29502869 316.99568176 C568.70633972 316.98166321 568.70633972 316.98166321 567.08555603 316.96736145 C563.13787017 316.92734327 559.19095398 316.86155267 555.24375916 316.78816223 C553.53878198 316.76002089 551.833676 316.73877241 550.12852478 316.72468567 C547.6703378 316.70316039 545.21368821 316.65646476 542.75596619 316.60505676 C541.62123367 316.60321381 541.62123367 316.60321381 540.46357727 316.60133362 C534.45172012 316.43675416 531.0551561 314.37510194 526.48252869 310.43318176 C523.20140171 306.46129121 523.99500483 300.83265176 524.29502869 295.99568176 C524.73690031 293.45833645 525.36595076 291.42160747 526.29502869 288.99568176 C526.95502869 288.66568176 527.61502869 288.33568176 528.29502869 287.99568176 C529.30145619 286.33288849 530.30088276 284.66584692 531.29502869 282.99568176 C533.61615007 280.1470328 535.80811534 279.12055838 539.29502869 277.99568176 C542.10043164 277.77527754 544.81666156 277.64790783 547.62315369 277.61677551 C548.41276489 277.59978104 549.2023761 277.58278656 550.01591492 277.5652771 C552.52553939 277.51235286 555.03514828 277.47191746 557.54502869 277.43318176 C560.06911134 277.38927424 562.59306567 277.34265545 565.11698914 277.29037476 C566.68496517 277.25837258 568.25305555 277.23149654 569.82121277 277.21014404 C573.35339335 277.46327284 573.35339335 277.46327284 576.29502869 275.99568176 C577.23608513 258.25272429 577.23608513 258.25272429 569.29502869 242.99568176 C568.30502869 242.99568176 567.31502869 242.99568176 566.29502869 242.99568176 C566.29502869 242.33568176 566.29502869 241.67568176 566.29502869 240.99568176 C565.23541931 240.59349426 565.23541931 240.59349426 564.15440369 240.18318176 C554.64865431 236.55284532 545.20328908 232.77772317 535.76133728 228.98518372 C533.19942663 227.95732548 530.63596393 226.93340226 528.07237244 225.90974426 C524.38868248 224.43634014 520.7108684 222.95059902 517.04502869 221.43318176 C516.09112244 221.0400177 515.13721619 220.64685364 514.15440369 220.24177551 C511.29502869 218.99568176 511.29502869 218.99568176 508.53378296 217.44188023 C504.93649893 215.83558775 502.5370149 215.61726025 498.61558533 215.6104126 C497.9694909 215.6051769 497.32339647 215.59994121 496.65772343 215.59454685 C494.50668367 215.58064964 492.3562496 215.58786995 490.20518494 215.595047 C488.65739919 215.58930112 487.10961793 215.58221697 485.56184387 215.57389832 C482.23554838 215.55880938 478.90941314 215.55300885 475.58308411 215.55442619 C470.32169198 215.55646274 465.06051482 215.53687409 459.79917908 215.51425171 C449.58067347 215.47330373 439.36218489 215.45467811 429.14361572 215.43807983 C416.13661497 215.41571463 403.12966399 215.38216208 390.12274456 215.3308807 C384.89423307 215.31097647 379.66583427 215.30138024 374.43728638 215.29992855 C371.18327573 215.29717518 367.92932717 215.28633854 364.67534256 215.27341843 C363.16850994 215.26914462 361.66166316 215.26827478 360.15482712 215.27109337 C358.09456586 215.27450458 356.03469488 215.26568813 353.97447205 215.25396729 C352.82264938 215.25233298 351.67082672 215.25069868 350.48410034 215.24901485 C346.16525573 214.90593499 342.54280208 214.25130279 339.43174744 211.12068176 C338.95350525 210.41943176 338.47526306 209.71818176 337.98252869 208.99568176 C337.49139587 208.29443176 337.00026306 207.59318176 336.49424744 206.87068176 C332.1715526 200.11207094 334.38392886 191.15355216 335.67002869 183.62068176 C336.77451614 176.75634383 337.66336467 169.91942881 338.29502869 162.99568176 C338.91288117 156.28588247 339.74493132 149.65149371 340.79502869 142.99568176 C341.93914198 135.72897821 342.78376195 128.48608223 343.45079041 121.16145325 C344.32454018 111.97814658 345.6523526 102.85822291 346.97447205 93.7303009 C347.22982727 91.94547302 347.22982727 91.94547302 347.49034119 90.12458801 C347.72261414 88.53239441 347.72261414 88.53239441 347.95957947 86.90803528 C348.26727435 84.23664355 348.35882824 81.68114727 348.29502869 78.99568176 C349.78002869 78.50068176 349.78002869 78.50068176 351.29502869 77.99568176 C351.83127869 77.25318176 352.36752869 76.51068176 352.92002869 75.74568176 C356.93562897 71.09603933 361.43039321 68.43056136 367.55967712 67.50007629 C371.16566537 67.28351694 374.74521018 67.20046558 378.35752869 67.18318176 C379.60469666 67.15804504 380.85186462 67.13290833 382.13682556 67.10700989 C385.18987786 67.0485223 388.24150879 67.01195954 391.29502869 66.99568176 C390.06348497 59.9069573 385.72221366 55.20711697 380.48252869 50.43318176 C378.45271835 48.81262247 378.45271835 48.81262247 376.29502869 48.99568176 C375.96502869 48.00568176 375.63502869 47.01568176 375.29502869 45.99568176 C363.26974107 39.31760702 347.43781428 39.69557384 334.0947876 39.71479797 C332.62608683 39.70961398 331.15738886 39.70358311 329.68869466 39.69679117 C325.69817889 39.68084295 321.70773542 39.67708296 317.71719158 39.67559624 C313.39610278 39.67186169 309.07505007 39.65675169 304.75398254 39.64332581 C295.33081693 39.61630453 285.90766849 39.60413524 276.48447061 39.59530449 C270.59448342 39.58976021 264.70450269 39.58128258 258.81451988 39.57229614 C242.48503311 39.54793986 226.15555147 39.52732902 209.82604694 39.52054596 C208.78359051 39.52010683 207.74113407 39.5196677 206.66708804 39.51921526 C205.62226852 39.5187787 204.577449 39.51834215 203.50096828 39.51789236 C201.38406328 39.51700545 199.26715829 39.51611233 197.1502533 39.51521301 C196.1002153 39.51477015 195.0501773 39.51432729 193.96831997 39.51387101 C176.93477104 39.50596618 159.90139273 39.4710182 142.86790977 39.42449397 C125.35217795 39.37704052 107.83653181 39.35214141 90.32073468 39.34981012 C80.49701592 39.34797916 70.67352023 39.33653689 60.84986305 39.3001709 C52.49118379 39.26933448 44.13279673 39.25914878 35.77407137 39.2756471 C31.5131245 39.28344553 27.25276585 39.28167378 22.99189186 39.25353241 C19.08527695 39.22796694 15.17968961 39.23052254 11.27307525 39.25471383 C9.86617626 39.25861278 8.45920337 39.25254006 7.05240802 39.23502511 C-2.39070823 39.12497361 -9.82210683 40.53071469 -17.70497131 45.99568176 Z M381.29502869 105.99568176 C381.09183896 107.4127759 380.94784414 108.8384691 380.83018494 110.26521301 C380.75348572 111.14757629 380.6767865 112.02993958 380.59776306 112.93904114 C380.51848572 113.88585754 380.43920837 114.83267395 380.35752869 115.80818176 C379.325877 127.43559442 379.325877 127.43559442 378.29502869 132.99568176 C377.16642305 139.17656105 376.62576035 145.39179422 376.08018494 151.64607239 C375.32994889 160.1290045 374.29212967 168.52032338 373.29502869 176.99568176 C401.34502869 176.99568176 429.39502869 176.99568176 458.29502869 176.99568176 C457.38938678 172.09850762 457.38938678 172.09850762 454.73252869 168.62068176 C451.86862122 164.98989861 449.70881819 161.16021806 447.60752869 157.05818176 C443.46300367 149.01910925 438.59926734 141.52891155 433.60166931 133.99983215 C431.81302355 131.25637306 430.10711041 128.46418548 428.40953064 125.66365051 C427.26074026 123.81816524 427.26074026 123.81816524 425.17002869 121.93318176 C422.26977854 118.93625661 420.87813541 114.85499756 419.63755798 110.89924622 C418.50171457 108.2255596 417.58009897 106.82723271 415.29502869 104.99568176 C409.69466439 103.93219727 404.21745998 104.19945714 398.54502869 104.43318176 C396.9865033 104.4647538 395.42790193 104.4927866 393.86924744 104.51716614 C387.10353238 104.09007224 387.10353238 104.09007224 381.29502869 105.99568176 Z M24.04502869 321.55818176 C23.12230164 321.78505676 22.19957458 322.01193176 21.24888611 322.24568176 C13.43457612 324.41199734 7.81517165 328.3204829 2.22764587 334.15412903 C0.29502869 335.99568176 0.29502869 335.99568176 -2.70497131 336.99568176 C-4.38214991 339.01130444 -4.38214991 339.01130444 -5.89247131 341.43318176 C-6.422276 342.2362677 -6.95208069 343.03935364 -7.49794006 343.86677551 C-8.86937596 345.87777156 -8.86937596 345.87777156 -8.70497131 347.99568176 C-9.36497131 347.99568176 -10.02497131 347.99568176 -10.70497131 347.99568176 C-18.95772955 362.79373101 -20.63373625 380.57483142 -16.70497131 396.99568176 C-15.15089013 401.04206653 -13.21081017 404.46827791 -10.70497131 407.99568176 C-10.00694397 408.99148254 -10.00694397 408.99148254 -9.29481506 410.00740051 C-4.03102295 416.76675474 3.36404153 421.02156158 11.29502869 423.99568176 C11.97049744 424.2625177 12.64596619 424.52935364 13.34190369 424.80427551 C26.24520597 429.58581838 40.63990959 428.34627888 53.29502869 423.00740051 C59.92502468 419.65355488 66.07854331 416.32732134 71.29502869 410.99568176 C71.97565369 410.83068176 72.65627869 410.66568176 73.35752869 410.49568176 C76.0967535 409.78878504 76.86349433 408.35771345 78.29502869 405.99568176 C78.29502869 405.33568176 78.29502869 404.67568176 78.29502869 403.99568176 C78.95502869 403.99568176 79.61502869 403.99568176 80.29502869 403.99568176 C81.73679434 400.83094061 83.17264522 397.66354851 84.60752869 394.49568176 C85.01164978 393.60880676 85.41577087 392.72193176 85.83213806 391.80818176 C87.00606237 389.21218654 88.15654981 386.60739618 89.29502869 383.99568176 C89.60682068 383.29733215 89.91861267 382.59898254 90.23985291 381.87947083 C92.34947787 376.81284016 92.83673674 372.21110498 92.79502869 366.74568176 C92.79079895 365.49996399 92.79079895 365.49996399 92.78648376 364.2290802 C92.59719207 356.9811082 90.65970121 351.40507329 87.29502869 344.99568176 C86.70721619 343.23224426 86.70721619 343.23224426 86.10752869 341.43318176 C80.7155621 331.20703823 73.66171459 325.64440155 62.96299744 322.07771301 C58.05714143 320.63051161 53.39017601 319.48233838 48.29502869 318.99568176 C47.373349 318.88997864 46.45166931 318.78427551 45.50205994 318.67536926 C38.03988024 318.23130682 31.22304256 319.71180885 24.04502869 321.55818176 Z M408.76768494 330.58161926 C408.30233337 331.17200989 407.83698181 331.76240051 407.35752869 332.37068176 C405.54839412 334.59242597 404.16651455 336.08564166 401.79502869 337.74568176 C397.72928233 341.40485349 395.75659598 346.17175391 393.29502869 350.99568176 C392.75233337 351.91607239 392.20963806 352.83646301 391.65049744 353.78474426 C383.5696319 368.05897389 384.49489737 382.53940429 388.65538025 397.90242004 C392.24706652 409.65628192 401.84218727 417.20974503 412.29502869 422.99568176 C427.19309014 429.3684589 444.1976707 428.35684108 459.29502869 422.99568176 C465.7814834 420.04095264 471.3024094 416.07608337 476.29502869 410.99568176 C477.31596619 410.53161926 477.31596619 410.53161926 478.35752869 410.05818176 C481.02738751 408.59406563 481.82405103 406.61785933 483.29502869 403.99568176 C483.77069275 403.56255676 484.24635681 403.12943176 484.73643494 402.68318176 C486.78237666 400.46802681 487.57969831 398.2395019 488.67002869 395.43318176 C490.6014085 390.58717424 492.76111595 386.01128936 495.27940369 381.44490051 C500.22346523 369.52210593 496.56858319 355.93855669 491.96299744 344.55427551 C487.0596731 334.09308472 480.26305445 326.60881596 469.38438416 322.55989075 C452.17763704 316.54904727 422.9069282 315.89994978 408.76768494 330.58161926 Z " fill="#BBBBBB" transform="translate(244.70497131347656,17.004318237304688)"/>
<path d="M0 0 C0.83491974 -0.01606293 1.66983948 -0.03212585 2.53005981 -0.04867554 C6.36524603 -0.09326626 10.20025917 -0.13422668 14.03564453 -0.15722656 C16.05301485 -0.17374115 18.07032775 -0.20097135 20.08740234 -0.23925781 C23.00372523 -0.29430987 25.9186751 -0.31594763 28.83544922 -0.33056641 C29.72845734 -0.35323578 30.62146545 -0.37590515 31.54153442 -0.39926147 C38.91578153 -0.37464673 43.74381246 2.03360396 48.97607422 7.18505859 C55.09781226 15.71302893 55.82814877 23.83994112 54.95263672 34.19287109 C52.64287256 45.76793922 47.79332222 56.30218975 37.95263672 63.19287109 C36.81826172 63.83224609 35.68388672 64.47162109 34.51513672 65.13037109 C31.6353729 66.95596803 31.6353729 66.95596803 31.60498047 70.11474609 C31.83860118 76.40459713 34.07114742 82.48170397 35.81982422 88.47998047 C37.88689973 95.91653071 39.55309592 103.59684998 36.76513672 111.06787109 C34.74799327 114.54570462 33.34625861 116.05144124 29.95263672 118.19287109 C27.08267352 118.80778561 24.31719263 118.84299604 21.39013672 118.81787109 C20.25801758 118.86621094 20.25801758 118.86621094 19.10302734 118.91552734 C15.11282503 118.92255854 13.5158732 118.74678247 10.59326172 115.87255859 C8.10066053 111.18150119 7.26365391 105.85902505 6.26513672 100.69287109 C6.05091064 99.62875 5.83668457 98.56462891 5.6159668 97.46826172 C4.10871144 89.71093655 3.10588414 82.10601071 2.95263672 74.19287109 C1.96263672 74.19287109 0.97263672 74.19287109 -0.04736328 74.19287109 C-0.08692139 74.84408936 -0.12647949 75.49530762 -0.16723633 76.16625977 C-0.71042068 83.49503023 -2.05746211 90.38968806 -3.85986328 97.50537109 C-4.10800781 98.55015625 -4.35615234 99.59494141 -4.61181641 100.67138672 C-6.28700407 107.37639995 -8.01037511 111.97923484 -12.79345703 117.04052734 C-16.14795319 118.75556437 -19.42995162 118.66680586 -23.10986328 118.63037109 C-23.82980469 118.65035156 -24.54974609 118.67033203 -25.29150391 118.69091797 C-28.45996476 118.68797604 -30.52205538 118.61126701 -33.04345703 116.60302734 C-35.72456815 110.1662742 -33.36028708 103.03443878 -31.92236328 96.50537109 C-31.70008057 95.47025391 -31.47779785 94.43513672 -31.2487793 93.36865234 C-30.77021303 91.14230043 -30.2887524 88.91656909 -29.8046875 86.69140625 C-29.0305142 83.11503507 -28.27324833 79.53542706 -27.52001953 75.95458984 C-25.17026538 64.81772646 -22.75658707 53.72529736 -19.91064453 42.70458984 C-19.01214962 39.04962639 -18.26335663 35.38770307 -17.54736328 31.69287109 C-17.0519494 29.19195824 -16.55179424 26.69198082 -16.04736328 24.19287109 C-15.90862793 23.50064453 -15.76989258 22.80841797 -15.62695312 22.09521484 C-12.51155113 6.95442982 -12.51155113 6.95442982 -6.04736328 1.19287109 C-3.79157663 0.06497777 -2.50513864 0.04381376 0 0 Z M10.95263672 25.19287109 C8.1782217 33.18318634 5.59638581 40.64284936 5.95263672 49.19287109 C13.11517423 48.82909949 18.1181614 48.47956423 23.70263672 43.69287109 C26.10786797 40.8065936 26.13837109 37.79174657 26.20263672 34.19287109 C26.22841797 33.32662109 26.25419922 32.46037109 26.28076172 31.56787109 C25.88935598 28.7348391 25.18050667 27.91714391 22.95263672 26.19287109 C19.17634891 24.65438347 14.95724253 25.12612766 10.95263672 25.19287109 Z " fill="#BBBBBB" transform="translate(337.04736328125,105.80712890625)"/>
<path d="M0 0 C1.05456894 -0.00960754 2.10913788 -0.01921509 3.19566345 -0.02911377 C4.34353836 -0.03336365 5.49141327 -0.03761353 6.67407227 -0.04199219 C7.84430435 -0.04769226 9.01453644 -0.05339233 10.2202301 -0.05926514 C12.70101004 -0.06873159 15.18180264 -0.07525562 17.66259766 -0.07910156 C21.47068028 -0.08881668 25.27822564 -0.11982928 29.08618164 -0.15136719 C31.49047529 -0.15789578 33.89477282 -0.16314681 36.29907227 -0.16699219 C37.44492294 -0.17933899 38.59077362 -0.19168579 39.77134705 -0.20440674 C40.82906815 -0.20140564 41.88678925 -0.19840454 42.9765625 -0.1953125 C43.91064438 -0.19895813 44.84472626 -0.20260376 45.80711365 -0.20635986 C46.91881676 -0.02445099 46.91881676 -0.02445099 48.05297852 0.16113281 C51.1605045 4.82242179 50.54960279 9.6982658 50.05297852 15.16113281 C49.29730515 17.53298621 48.44344429 19.07543414 47.05297852 21.16113281 C46.39297852 21.16113281 45.73297852 21.16113281 45.05297852 21.16113281 C45.05297852 21.82113281 45.05297852 22.48113281 45.05297852 23.16113281 C37.7144606 27.37220536 31.32021525 27.66107298 22.99047852 27.41113281 C21.83870117 27.39308594 20.68692383 27.37503906 19.50024414 27.35644531 C16.68360018 27.30969604 13.86874623 27.24418438 11.05297852 27.16113281 C10.86735352 28.58425781 10.86735352 28.58425781 10.67797852 30.03613281 C10.00532797 34.78368083 9.02569611 39.46753435 8.05297852 44.16113281 C8.72353271 44.13494873 9.39408691 44.10876465 10.08496094 44.08178711 C13.13655979 43.97756043 16.18778394 43.91272658 19.24047852 43.84863281 C20.29557617 43.80673828 21.35067383 43.76484375 22.43774414 43.72167969 C30.30556072 43.59758163 30.30556072 43.59758163 34.22875977 46.55566406 C37.13775096 50.7104759 37.23156958 53.07128743 37.05297852 58.16113281 C35.90582403 61.60259628 34.66525785 62.69398011 32.05297852 65.16113281 C31.22797852 66.02738281 30.40297852 66.89363281 29.55297852 67.78613281 C26.02684145 71.13596302 23.47688653 72.41804631 18.61157227 72.39160156 C17.78077148 72.38966797 16.9499707 72.38773437 16.09399414 72.38574219 C15.23483398 72.37349609 14.37567383 72.36125 13.49047852 72.34863281 C12.1959375 72.34766602 12.1959375 72.34766602 10.87524414 72.34667969 C4.47535575 72.30192522 4.47535575 72.30192522 1.05297852 71.16113281 C0.92020508 72.10214844 0.78743164 73.04316406 0.65063477 74.01269531 C0.4740332 75.25792969 0.29743164 76.50316406 0.11547852 77.78613281 C-0.05854492 79.01589844 -0.23256836 80.24566406 -0.41186523 81.51269531 C-0.88478375 84.73682595 -1.40619715 87.94788349 -1.94702148 91.16113281 C-0.75157715 91.12971191 -0.75157715 91.12971191 0.46801758 91.09765625 C4.07954286 91.01449959 7.69086675 90.96247247 11.30297852 90.91113281 C12.55723633 90.87761719 13.81149414 90.84410156 15.10375977 90.80957031 C16.3090332 90.79667969 17.51430664 90.78378906 18.75610352 90.77050781 C19.86630859 90.74956055 20.97651367 90.72861328 22.12036133 90.70703125 C25.72336545 91.26493898 26.86466993 92.3002244 29.05297852 95.16113281 C30.2503851 100.94171631 29.86226476 106.61850809 26.80297852 111.72363281 C24.89211568 114.46607484 22.86999334 116.35645612 20.05297852 118.16113281 C17.66271973 118.55554199 17.66271973 118.55554199 14.98071289 118.58105469 C13.97286743 118.59696655 12.96502197 118.61287842 11.92663574 118.62927246 C10.84426636 118.62947388 9.76189697 118.62967529 8.64672852 118.62988281 C6.97145081 118.6413031 6.97145081 118.6413031 5.2623291 118.6529541 C2.90204097 118.66375501 0.54170504 118.66660826 -1.81860352 118.66210938 C-5.43383174 118.66113636 -9.0469431 118.70277583 -12.66186523 118.74707031 C-14.95482955 118.75227668 -17.24780126 118.75496552 -19.54077148 118.75488281 C-20.62314087 118.77127808 -21.70551025 118.78767334 -22.82067871 118.80456543 C-30.30190605 118.73549139 -30.30190605 118.73549139 -33.64038086 115.76318359 C-38.82404325 105.44041197 -30.26042169 84.18839015 -27.65795898 73.41113281 C-27.07563788 70.74909348 -26.57685458 68.1018623 -26.10717773 65.41894531 C-24.78570175 58.05109334 -23.16486941 50.75120704 -21.54296875 43.44482422 C-21.00925344 41.03492249 -20.48292469 38.62347997 -19.95678711 36.21191406 C-18.3039887 28.70820542 -16.58697728 21.39197947 -13.94702148 14.16113281 C-13.48687703 12.74505338 -13.02835145 11.32844606 -12.57202148 9.91113281 C-11.15149755 6.12558765 -9.01128569 3.82220436 -5.94702148 1.16113281 C-4.28326631 -0.50262236 -2.28719987 0.01673335 0 0 Z " fill="#BBBBBB" transform="translate(426.947021484375,105.8388671875)"/>
<path d="M0 0 C1.06962982 -0.00241196 2.13925964 -0.00482391 3.24130249 -0.00730896 C5.49554158 -0.00633196 7.74980509 0.0070263 10.00390625 0.03198242 C13.45655533 0.06636261 16.90665439 0.05261424 20.359375 0.03320312 C22.55209423 0.04009973 24.74480687 0.04977042 26.9375 0.0625 C27.96984772 0.05754013 29.00219543 0.05258026 30.06582642 0.04747009 C37.16460525 0.16440857 37.16460525 0.16440857 40.48974609 2.46508789 C42.51517978 5.72069521 42.27088785 7.83862459 41.8359375 11.62890625 C40.43573347 17.31486991 39.08771005 21.27820344 34.23242188 24.78808594 C28.0477335 28.26236646 22.29186218 28.09523884 15.3359375 27.87890625 C14.22734375 27.86085937 13.11875 27.8428125 11.9765625 27.82421875 C9.26210454 27.77741775 6.54949034 27.71187 3.8359375 27.62890625 C3.6503125 29.33046875 3.6503125 29.33046875 3.4609375 31.06640625 C2.89364667 35.6622841 1.90908962 40.12791874 0.8359375 44.62890625 C1.79632935 44.58963013 1.79632935 44.58963013 2.77612305 44.54956055 C5.69164252 44.44529344 8.60676948 44.38048872 11.5234375 44.31640625 C12.53083984 44.27451172 13.53824219 44.23261719 14.57617188 44.18945312 C22.01205102 44.06674885 22.01205102 44.06674885 25.99609375 46.78515625 C29.1270155 51.62445781 28.97874597 56.08017583 27.8359375 61.62890625 C25.03142088 66.53485732 20.97994592 70.29518036 15.8359375 72.62890625 C12.59682562 73.00648952 9.40472046 72.95743003 6.1484375 72.87890625 C5.28154297 72.87375 4.41464844 72.86859375 3.52148438 72.86328125 C-2.85408145 72.78389677 -2.85408145 72.78389677 -5.1640625 71.62890625 C-5.29683594 72.56992188 -5.42960937 73.5109375 -5.56640625 74.48046875 C-5.74300781 75.72570312 -5.91960937 76.9709375 -6.1015625 78.25390625 C-6.27558594 79.48367187 -6.44960938 80.7134375 -6.62890625 81.98046875 C-7.10182477 85.20459939 -7.62323817 88.41565692 -8.1640625 91.62890625 C-7.40262939 91.60272217 -6.64119629 91.57653809 -5.85668945 91.54956055 C-2.39685815 91.4454361 1.06264335 91.38052896 4.5234375 91.31640625 C5.72162109 91.27451172 6.91980469 91.23261719 8.15429688 91.18945312 C16.97783532 91.06656262 16.97783532 91.06656262 21.16796875 93.8125 C24.25643536 99.02745182 22.73042443 104.12174528 21.29296875 109.7578125 C19.97989551 113.44237558 18.08768706 115.73605862 14.79693604 117.81054688 C10.63305181 119.54820941 6.11421634 119.19513566 1.671875 119.16015625 C0.60224518 119.16398315 -0.46738464 119.16781006 -1.56942749 119.17175293 C-3.82363836 119.17446793 -6.07788095 119.16713574 -8.33203125 119.15039062 C-11.7845657 119.1289342 -15.23502912 119.15022923 -18.6875 119.17578125 C-20.88021293 119.17313873 -23.07292457 119.16801532 -25.265625 119.16015625 C-26.29797272 119.16825317 -27.33032043 119.1763501 -28.39395142 119.18469238 C-35.45531614 119.0920785 -35.45531614 119.0920785 -38.8112793 116.89892578 C-44.52784865 107.30631401 -37.7859225 90.38239135 -35.4765625 80.25390625 C-35.03595966 78.27890197 -34.59649962 76.30364239 -34.15820312 74.328125 C-32.8441615 68.42441335 -31.50678504 62.52615197 -30.1640625 56.62890625 C-29.71221658 54.64217645 -29.26039355 52.65544145 -28.80859375 50.66870117 C-28.16012408 47.81738248 -27.51150651 44.96609851 -26.86204529 42.11500549 C-25.78568478 37.38519958 -24.72241708 32.65315356 -23.6875 27.9140625 C-23.4915625 27.02396484 -23.295625 26.13386719 -23.09375 25.21679688 C-22.71131984 23.47566237 -22.33402185 21.73339537 -21.9609375 19.99023438 C-18.91911832 6.29190867 -18.91911832 6.29190867 -13.12808228 1.67228699 C-9.05615908 -0.49091233 -4.50426577 -0.05807502 0 0 Z " fill="#BBBBBB" transform="translate(516.1640625,105.37109375)"/>
<path d="M0 0 C1.11780853 -0.00145523 2.23561707 -0.00291046 3.38729858 -0.00440979 C5.74585583 -0.00275218 8.10442405 0.00879346 10.46289062 0.02954102 C14.07989188 0.05854527 17.695432 0.05013633 21.3125 0.03710938 C23.60417381 0.04334529 25.89584299 0.05173508 28.1875 0.0625 C29.27189362 0.05956436 30.35628723 0.05662872 31.47354126 0.05360413 C32.98058121 0.07263039 32.98058121 0.07263039 34.51806641 0.09204102 C35.40233307 0.097444 36.28659973 0.10284698 37.19766235 0.1084137 C39.92320649 0.57527655 40.81171086 1.31341045 42.4609375 3.49609375 C43.60466524 9.2971633 42.63814077 14.64030758 39.73828125 19.73828125 C37.01340668 23.48810864 33.90265145 26.01552243 29.4609375 27.49609375 C27.4689072 27.57901328 25.47420037 27.60347552 23.48046875 27.59375 C22.31708984 27.59052734 21.15371094 27.58730469 19.95507812 27.58398438 C18.74013672 27.57560547 17.52519531 27.56722656 16.2734375 27.55859375 C15.04689453 27.55408203 13.82035156 27.54957031 12.55664062 27.54492188 C9.52469082 27.5331244 6.49283844 27.51666296 3.4609375 27.49609375 C3.41195312 28.05296875 3.36296875 28.60984375 3.3125 29.18359375 C2.79538173 34.4617664 1.85631287 39.3797174 0.4609375 44.49609375 C1.16178467 44.46990967 1.86263184 44.44372559 2.5847168 44.41674805 C5.772394 44.31255835 8.95971276 44.24769792 12.1484375 44.18359375 C13.25123047 44.14169922 14.35402344 44.09980469 15.49023438 44.05664062 C23.66678784 43.93312773 23.66678784 43.93312773 27.66796875 46.76953125 C30.09459379 50.45969307 30.76342849 53.11429573 30.4609375 57.49609375 C29.2734375 60.62109375 29.2734375 60.62109375 27.4609375 63.49609375 C26.8834375 64.54796875 26.3059375 65.59984375 25.7109375 66.68359375 C23.03789442 70.0248976 20.50222667 71.37883444 16.4609375 72.49609375 C13.03206142 72.85778217 9.65477691 72.8266514 6.2109375 72.74609375 C4.86515625 72.73835938 4.86515625 72.73835938 3.4921875 72.73046875 C-3.07176825 72.6518585 -3.07176825 72.6518585 -6.5390625 71.49609375 C-6.6421875 72.69234375 -6.7453125 73.88859375 -6.8515625 75.12109375 C-7.43531062 80.39127048 -8.5591541 85.4929213 -9.73046875 90.66015625 C-10.29865393 93.35560478 -10.78700817 95.98902751 -11.19140625 98.70703125 C-12.37782126 106.46374308 -13.36441022 112.10969495 -19.5390625 117.49609375 C-22.66964336 119.06138418 -25.97985258 118.76300689 -29.4140625 118.80859375 C-30.49494141 118.85209961 -30.49494141 118.85209961 -31.59765625 118.89648438 C-34.96076782 118.93674262 -37.03797246 118.88040668 -39.74951172 116.80078125 C-43.06740619 112.52780392 -42.04639766 107.65859134 -41.5390625 102.49609375 C-40.67721932 97.37838024 -39.51303943 92.34931994 -38.2890625 87.30859375 C-37.9632114 85.92313921 -37.63859575 84.53739355 -37.31518555 83.15136719 C-36.40448081 79.26268114 -35.47307896 75.37924463 -34.5390625 71.49609375 C-33.96355858 69.07267274 -33.39060511 66.64867208 -32.81884766 64.22436523 C-32.36273406 62.29338901 -31.90212612 60.36347613 -31.44140625 58.43359375 C-30.15343552 52.92307147 -29.03519971 47.37352431 -27.93286133 41.82324219 C-27.77970459 41.07075195 -27.62654785 40.31826172 -27.46875 39.54296875 C-27.33710449 38.88135742 -27.20545898 38.21974609 -27.06982422 37.53808594 C-26.5390625 35.49609375 -26.5390625 35.49609375 -25.55493164 33.04980469 C-24.56538764 30.56227038 -23.9272508 28.20165609 -23.35546875 25.58984375 C-23.14986328 24.68105469 -22.94425781 23.77226562 -22.73242188 22.8359375 C-22.31203185 20.94353162 -21.89536034 19.05029583 -21.48242188 17.15625 C-20.13683849 11.24574356 -18.76350025 6.97791877 -14.65698242 2.39624023 C-9.91721393 -0.49230555 -5.44770179 -0.05664797 0 0 Z " fill="#BBBBBB" transform="translate(267.5390625,105.50390625)"/>
<path d="M0 0 C5.64675933 3.97719018 12.49768851 9.95618014 14.49609375 16.796875 C16.16104424 29.21740565 16.74404777 44.26906525 9.19921875 54.8359375 C8.10925901 56.13961483 7.00426987 57.43083348 5.88671875 58.7109375 C5.005 59.84015625 5.005 59.84015625 4.10546875 60.9921875 C-1.38156347 67.73853859 -7.74289594 72.91698509 -16.56469727 74.22119141 C-20.24515178 74.37015329 -23.86971358 74.33486613 -27.55078125 74.2109375 C-28.80310547 74.200625 -30.05542969 74.1903125 -31.34570312 74.1796875 C-41.30115885 74.00868665 -41.30115885 74.00868665 -45.11328125 71.7109375 C-45.11328125 71.0509375 -45.11328125 70.3909375 -45.11328125 69.7109375 C-45.67917969 69.48019531 -46.24507812 69.24945313 -46.828125 69.01171875 C-49.70293967 67.37528579 -51.48430003 65.37173356 -53.67578125 62.8984375 C-54.44019531 62.04636719 -55.20460938 61.19429688 -55.9921875 60.31640625 C-62.57920729 52.22516832 -61.65700364 45.08792846 -60.796875 35 C-59.08884414 20.81257251 -53.74926437 11.94593475 -42.71484375 2.953125 C-31.08051733 -6.07057208 -12.70765965 -7.75143749 0 0 Z " fill="#BBBBBB" transform="translate(709.11328125,354.2890625)"/>
<path d="M0 0 C7.10627868 5.96777276 9.78833846 12.28778268 10.9765625 21.47851562 C11.25729565 25.53806466 10.91535436 29.52241331 10.5 33.5625 C10.37794189 34.75105591 10.37794189 34.75105591 10.25341797 35.96362305 C8.63642118 48.7551744 1.78378361 56.56179631 -8.03125 64.33203125 C-16.00237242 70.44421654 -21.17691598 70.96395243 -31.25 70.9375 C-33.07917969 70.96166992 -33.07917969 70.96166992 -34.9453125 70.98632812 C-36.71648437 70.98729492 -36.71648437 70.98729492 -38.5234375 70.98828125 C-39.59770996 70.99126221 -40.67198242 70.99424316 -41.77880859 70.99731445 C-46.62849846 70.41414326 -49.87445853 68.65675705 -53.25390625 65.171875 C-53.97449219 64.24890625 -54.69507813 63.3259375 -55.4375 62.375 C-56.20191406 61.39917969 -56.96632812 60.42335938 -57.75390625 59.41796875 C-58.80384766 58.03544922 -58.80384766 58.03544922 -59.875 56.625 C-60.42027344 55.91988281 -60.96554688 55.21476562 -61.52734375 54.48828125 C-67.4450608 46.58083905 -66.27447673 38.20246704 -65.3125 28.75 C-64.20344536 21.45736733 -61.47387266 15.40754874 -56.875 9.625 C-54.70703125 8.4140625 -54.70703125 8.4140625 -52.875 7.625 C-52.565625 7.00625 -52.25625 6.3875 -51.9375 5.75 C-48.9111796 -0.3026408 -40.76841884 -3.62304437 -34.875 -6.375 C-22.3359302 -9.81148242 -10.33751094 -7.5685348 0 0 Z " fill="#BBBBBB" transform="translate(308.875,357.375)"/>
<path d="M0 0 C0.82141479 -0.00426498 1.64282959 -0.00852997 2.48913574 -0.01292419 C3.38170074 -0.01247101 4.27426575 -0.01201782 5.19387817 -0.0115509 C6.61407257 -0.01658882 6.61407257 -0.01658882 8.06295776 -0.02172852 C11.19401358 -0.03123029 14.32501587 -0.03318124 17.45608521 -0.03425598 C19.63317894 -0.03746908 21.81027245 -0.04083319 23.98736572 -0.04434204 C28.55197653 -0.05033136 33.1165684 -0.05218214 37.68118286 -0.05158997 C43.52767803 -0.05148835 49.37405173 -0.06514079 55.22051811 -0.08236217 C59.71753496 -0.09348534 64.21452247 -0.09550907 68.71155167 -0.09498024 C70.86689803 -0.09615987 73.02224516 -0.10058067 75.17757797 -0.10831261 C78.19351438 -0.11811879 81.20918745 -0.11523188 84.22512817 -0.10920715 C85.11364471 -0.11482666 86.00216125 -0.12044617 86.91760254 -0.12623596 C91.59473885 -0.1025154 95.49477413 0.17897479 99.83889771 2.13371277 C102.02639771 4.63371277 102.02639771 4.63371277 103.83889771 7.13371277 C104.82889771 7.79371277 105.81889771 8.45371277 106.83889771 9.13371277 C108.02357775 15.04437452 106.90059785 22.53381106 104.83889771 28.13371277 C101.15724813 33.60518191 96.49324984 38.80982589 89.83889771 40.13371277 C88.4391315 40.22459065 87.0358036 40.26835846 85.63310242 40.27415466 C84.80182831 40.27986481 83.9705542 40.28557495 83.11408997 40.29145813 C81.75885979 40.29313492 81.75885979 40.29313492 80.37625122 40.29484558 C79.41809509 40.29981049 78.45993896 40.30477539 77.4727478 40.30989075 C74.30442588 40.32449124 71.13615399 40.33131003 67.96780396 40.33683777 C65.76589456 40.34258991 63.56398517 40.34834764 61.36207581 40.35411072 C56.7461931 40.36461396 52.13032779 40.37046141 47.51443481 40.37394714 C41.59828848 40.37943767 35.68237162 40.40348061 29.76629734 40.4319191 C25.21870753 40.45053436 20.6711732 40.45575044 16.12354851 40.45728302 C13.94224731 40.46031138 11.76094713 40.46834605 9.5796833 40.4814682 C6.52992333 40.49850902 3.48072689 40.49665339 0.43093872 40.49015808 C-0.47052383 40.49937286 -1.37198639 40.50858765 -2.30076599 40.51808167 C-8.75317282 40.47499966 -11.89093696 38.99112077 -16.91110229 34.88371277 C-20.95334677 29.94319175 -20.38221874 23.89208738 -19.84860229 17.75871277 C-18.81520411 10.47433953 -16.33814853 7.19123917 -10.66891479 2.67277527 C-7.12193548 0.49596865 -4.11884185 0.0097054 0 0 Z " fill="#BBBBBB" transform="translate(47.161102294921875,171.8662872314453)"/>
</svg>
