<?xml version="1.0" encoding="UTF-8"?>
<svg version="1.1" xmlns="http://www.w3.org/2000/svg" width="900" height="500">
<path d="M0 0 C1.62830806 -0.00708888 3.25660391 -0.01767396 4.88486952 -0.03140372 C9.31249333 -0.05872946 13.73865322 -0.0368492 18.16620314 -0.00613844 C22.95908373 0.01829716 27.7517926 -0.00375918 32.54467773 -0.01974487 C41.91509262 -0.043675 51.28495268 -0.02500746 60.65531904 0.00863131 C71.58109568 0.04639618 82.5067456 0.0428995 93.4325723 0.03819207 C112.93420195 0.03132251 132.43557054 0.06372933 151.93711853 0.11750793 C170.83530264 0.16960494 189.73320115 0.19085105 208.63145447 0.17903137 C229.24085335 0.16619284 249.85013054 0.16888618 270.45951456 0.19987661 C271.55058617 0.20151482 272.64165778 0.20315304 273.76579217 0.2048409 C275.95677138 0.20813155 278.14775055 0.21145331 280.33872967 0.21480658 C287.94416508 0.22555488 295.54955987 0.22586351 303.15500069 0.22250938 C312.43000118 0.21893774 321.70476302 0.23398057 330.97968919 0.2720693 C335.70670652 0.29109699 340.43338645 0.30243234 345.16043854 0.29198837 C349.4963985 0.28266994 353.83165523 0.29681576 358.16750079 0.32888905 C359.72715322 0.33649132 361.28687428 0.33591305 362.84651268 0.32583561 C378.35961634 0.23512314 393.00882848 3.97699666 405.21910095 13.99568176 C406.31222595 14.53193176 407.40535095 15.06818176 408.53160095 15.62068176 C413.62160303 18.40112343 417.03791535 23.25282323 420.21910095 27.99568176 C420.21910095 28.65568176 420.21910095 29.31568176 420.21910095 29.99568176 C421.09308533 30.34759583 421.09308533 30.34759583 421.98472595 30.70661926 C429.58879591 35.0935827 433.83464619 45.73595019 437.42906189 53.42390442 C439.30865366 57.40299823 441.39146528 60.58427614 444.21910095 63.99568176 C444.48722595 64.88255676 444.75535095 65.76943176 445.03160095 66.68318176 C446.5257902 70.85118336 448.86361385 73.97403309 451.4651947 77.53083801 C453.71662511 80.69487495 455.73697648 83.76425551 457.15660095 87.39021301 C458.50773281 90.7034665 460.32880401 93.65939154 462.21910095 96.68318176 C462.5748822 97.26390442 462.93066345 97.84462708 463.29722595 98.44294739 C464.79573304 100.86124706 466.20034664 102.97692745 468.21910095 104.99568176 C468.63160095 106.02693176 469.04410095 107.05818176 469.46910095 108.12068176 C470.66775477 111.05677823 472.1279919 113.32281827 474.09410095 115.80818176 C476.97445591 119.4831174 478.92960174 123.27802585 480.9339447 127.48005676 C482.63918075 130.81796561 484.69971084 133.83693041 486.82066345 136.92146301 C488.37649729 139.22913834 489.7405132 141.62345751 491.09410095 144.05427551 C493.11007712 147.53323438 495.31228107 150.89568884 497.4808197 154.28083801 C498.98925741 156.63671263 500.4852791 158.9992565 501.96910095 161.37068176 C502.3661322 161.9984552 502.76316345 162.62622864 503.17222595 163.27302551 C504.09156641 164.78582082 504.91403793 166.35660001 505.71910095 167.93318176 C507.70727086 170.66691539 508.94874416 170.38681421 512.21910095 170.99568176 C517.85750069 173.08772249 523.3665683 175.50414065 528.71910095 178.24568176 C531.40455501 179.58840879 533.36532368 180.36985341 536.21910095 180.99568176 C536.21910095 181.65568176 536.21910095 182.31568176 536.21910095 182.99568176 C537.29160095 183.05755676 538.36410095 183.11943176 539.46910095 183.18318176 C548.03322569 184.27999072 555.76234154 188.72534317 563.34410095 192.62068176 C567.33292546 194.65668988 571.08066172 196.39957046 575.40660095 197.55818176 C584.75957369 200.09223842 592.33483842 205.31574665 599.21910095 211.99568176 C600.58035095 213.29505676 600.58035095 213.29505676 601.96910095 214.62068176 C606.73450997 219.65083573 609.98215137 224.91414012 613.21910095 230.99568176 C614.02347595 232.38786926 614.02347595 232.38786926 614.84410095 233.80818176 C622.218304 250.90292519 618.41261341 268.8234976 615.73472595 286.63264465 C614.69362969 293.55772654 613.79047545 300.45915837 613.15660095 307.43318176 C612.46064927 315.06532224 611.4582096 322.61799236 610.32432556 330.19685364 C609.45349244 336.09849468 608.78445696 341.99514315 608.21910095 347.93318176 C607.46331252 355.78652554 606.09672345 363.3224645 604.21910095 370.99568176 C603.55910095 370.99568176 602.89910095 370.99568176 602.21910095 370.99568176 C601.97160095 371.88255676 601.72410095 372.76943176 601.46910095 373.68318176 C598.75101124 380.8861195 593.18037106 384.53211919 587.21910095 388.99568176 C586.53203064 389.54868958 585.84496033 390.10169739 585.1370697 390.67146301 C576.55256278 397.49504544 568.08310705 399.17217902 557.19566345 399.09333801 C556.44948761 399.09192307 555.70331177 399.09050812 554.93452454 399.08905029 C552.57100777 399.0834905 550.20758868 399.07094566 547.84410095 399.05818176 C546.23342525 399.05316156 544.62274804 399.04859956 543.0120697 399.04450989 C539.08104296 399.03353427 535.15008847 399.01629772 531.21910095 398.99568176 C531.26365417 399.73520081 531.3082074 400.47471985 531.35411072 401.23664856 C531.20644272 404.25436285 530.62371782 405.59545038 529.0589447 408.14021301 C528.59842712 408.89576477 528.13790955 409.65131653 527.66343689 410.42976379 C527.16618103 411.21464172 526.66892517 411.99951965 526.15660095 412.80818176 C525.65289978 413.61626282 525.14919861 414.42434387 524.63023376 415.25691223 C521.2321416 420.62180533 517.64191883 425.4326282 513.21910095 429.99568176 C512.09179021 431.3479254 510.96685947 432.70215607 509.84410095 434.05818176 C506.78127294 437.55564613 503.46670702 440.30718748 499.7386322 443.06990051 C497.33157346 444.9097144 495.04954403 446.8569596 492.76499939 448.84553528 C488.23007429 452.76954896 483.94615143 456.0845707 478.2542572 458.17927551 C476.12166707 458.9637452 476.12166707 458.9637452 473.9964447 460.39802551 C470.38348011 462.47636942 466.65101983 463.76929686 462.71910095 465.12068176 C461.97273376 465.38493958 461.22636658 465.64919739 460.4573822 465.92146301 C453.9699746 468.18344407 448.17897078 469.15829657 441.2776947 469.19880676 C440.51417191 469.20450684 439.75064911 469.21020691 438.96398926 469.21607971 C437.34941479 469.22550116 435.73482133 469.23205231 434.120224 469.23591614 C431.68863326 469.24555479 429.25791315 469.2765764 426.82652283 469.30818176 C414.88277307 469.39144013 404.45519896 468.10997155 393.71910095 462.49568176 C392.57441345 461.90786926 391.42972595 461.32005676 390.25035095 460.71443176 C387.71628157 459.2775883 385.53068513 457.74761925 383.21910095 455.99568176 C381.82974679 455.31561548 380.4335407 454.64940959 379.03160095 453.99568176 C373.92041635 451.2138567 370.90605129 447.38191847 367.4105072 442.80427551 C365.43409374 440.27122511 363.35704389 438.0798451 361.09410095 435.80818176 C355.70198152 429.83487581 353.07035846 422.41014428 350.21910095 414.99568176 C349.85558533 414.0765802 349.4920697 413.15747864 349.11753845 412.21052551 C347.29910065 407.2565571 347.21910095 404.73520365 347.21910095 398.99568176 C237.82410095 399.49068176 237.82410095 399.49068176 126.21910095 399.99568176 C125.55910095 401.64568176 124.89910095 403.29568176 124.21910095 404.99568176 C120.83590093 413.45368183 117.11191233 421.84803918 110.21910095 427.99568176 C109.66222595 428.75880676 109.10535095 429.52193176 108.53160095 430.30818176 C108.09847595 430.86505676 107.66535095 431.42193176 107.21910095 431.99568176 C106.55910095 431.99568176 105.89910095 431.99568176 105.21910095 431.99568176 C105.15335876 432.57060364 105.08761658 433.14552551 105.0198822 433.73786926 C103.89403873 436.91219865 102.05536795 438.06684527 99.40660095 440.12068176 C98.41531189 440.89927551 97.42402283 441.67786926 96.4026947 442.48005676 C95.88046326 442.88804504 95.35823181 443.29603333 94.82017517 443.71638489 C93.20248226 445.0089605 91.63148762 446.34273949 90.0667572 447.69880676 C89.54895691 448.14466125 89.03115662 448.59051575 88.49766541 449.04988098 C87.04259332 450.30717854 85.59167111 451.56927403 84.14097595 452.83161926 C80.96376624 455.1847933 77.87573664 456.51976078 74.21910095 457.99568176 C72.58270749 458.93442785 70.95710937 459.89229961 69.34410095 460.87068176 C56.13234806 468.04570525 42.95425412 469.80409458 28.13365173 469.59260559 C25.45664986 469.5580209 22.78292045 469.57209883 20.1058197 469.59138489 C7.29326449 469.58221643 -3.82930182 467.87740578 -14.96839905 461.12068176 C-15.54662415 460.77190979 -16.12484924 460.42313782 -16.72059631 460.063797 C-18.40947305 459.04457871 -20.0952604 458.02024649 -21.78089905 456.99568176 C-22.7244928 456.4890802 -23.66808655 455.98247864 -24.64027405 455.46052551 C-30.83745968 452.08963211 -35.10973966 448.07376022 -38.78089905 441.99568176 C-38.78089905 441.33568176 -38.78089905 440.67568176 -38.78089905 439.99568176 C-39.35968811 439.76622864 -39.93847717 439.53677551 -40.5348053 439.30036926 C-48.74087096 434.53371547 -52.6641245 423.45719136 -55.78089905 414.99568176 C-56.08898499 414.24029114 -56.39707092 413.48490051 -56.7144928 412.70661926 C-58.42240931 408.4736013 -59.19904039 404.50508632 -59.78089905 399.99568176 C-60.47279327 399.99203613 -61.1646875 399.9883905 -61.87754822 399.9846344 C-68.43810354 399.94657023 -74.99819712 399.88951175 -81.55840874 399.81177902 C-84.93011633 399.77247942 -88.30156963 399.74020641 -91.67347717 399.72468567 C-95.56126801 399.70315064 -99.44808924 399.65644234 -103.33558655 399.60505676 C-105.1283754 399.60321381 -105.1283754 399.60321381 -106.9573822 399.60133362 C-115.50468122 399.45354605 -122.90162097 398.26983568 -129.58558655 392.62849426 C-133.86015043 387.45062631 -133.86015043 387.45062631 -135.78089905 384.99568176 C-136.58527405 384.02630676 -137.38964905 383.05693176 -138.21839905 382.05818176 C-144.38729891 369.96713803 -141.80842935 355.2990817 -139.8094635 342.45124817 C-139.46711157 340.23735598 -139.14382408 338.02122184 -138.82191467 335.80427551 C-138.60495094 334.37311337 -138.38689022 332.942117 -138.1676178 331.51130676 C-137.97385559 330.23545715 -137.78009338 328.95960754 -137.58045959 327.64509583 C-135.80097786 319.52305218 -132.19947102 314.25370013 -125.78089905 308.99568176 C-121.51988211 306.32140335 -117.75886449 305.88413072 -112.78089905 305.99568176 C-111.6049218 295.63707369 -110.48515307 285.2755878 -109.47865295 274.89900208 C-108.99129195 269.91913308 -108.42249728 264.95813178 -107.78089905 259.99568176 C-108.63039627 260.1570311 -109.47989349 260.31838043 -110.35513306 260.48461914 C-113.81814001 261.00123744 -117.09335667 261.14332665 -120.59315491 261.17268372 C-121.24602982 261.17925491 -121.89890472 261.18582611 -122.57156372 261.19259644 C-124.71295823 261.21216462 -126.85428334 261.22395168 -128.9957428 261.23396301 C-129.73171755 261.23803854 -130.4676923 261.24211407 -131.22596931 261.2463131 C-135.11789283 261.26709849 -139.00978182 261.28143538 -142.90174866 261.29084778 C-146.90760047 261.30192743 -150.9128992 261.3363662 -154.91855526 261.37601948 C-158.01305132 261.40222232 -161.10741579 261.41054257 -164.20201302 261.41412926 C-165.67833272 261.41898172 -167.15464708 261.4305574 -168.63085747 261.44916725 C-182.97548675 261.61884165 -182.97548675 261.61884165 -188.78089905 256.99568176 C-192.96484873 252.27602377 -193.38239105 248.51577509 -193.21839905 242.49568176 C-193.22548889 241.7622052 -193.23257874 241.02872864 -193.23988342 240.27302551 C-193.16906561 234.18269376 -191.65403343 230.14928547 -187.5894928 225.47615051 C-186.41580139 224.34113098 -186.41580139 224.34113098 -185.21839905 223.18318176 C-184.43335999 222.41361145 -183.64832092 221.64404114 -182.8394928 220.85115051 C-179.13590975 217.5130064 -175.97273618 217.85904431 -171.21009827 217.88215637 C-170.03923172 217.88193733 -170.03923172 217.88193733 -168.8447113 217.88171387 C-166.25830835 217.8824119 -163.67197695 217.89019919 -161.08558655 217.89802551 C-159.29482564 217.89989008 -157.50406422 217.9013138 -155.71330261 217.90231323 C-150.99505714 217.90613535 -146.27684234 217.91596305 -141.55860901 217.92701721 C-136.74599116 217.93723788 -131.93336837 217.94181226 -127.1207428 217.94685364 C-117.67411472 217.95758558 -108.22750943 217.97465836 -98.78089905 217.99568176 C-98.62326584 216.88696716 -98.46563263 215.77825256 -98.30322266 214.63594055 C-97.7204793 210.57459509 -97.04830588 206.53714763 -96.34339905 202.49568176 C-96.22158264 201.77509583 -96.09976624 201.05450989 -95.97425842 200.31208801 C-95.36897555 196.8434722 -94.6760917 193.46949183 -93.6832428 190.08943176 C-92.68756571 187.21279114 -92.68756571 187.21279114 -92.78089905 184.99568176 C-93.2398053 185.53837708 -93.69871155 186.08107239 -94.17152405 186.64021301 C-94.7851178 187.3556427 -95.39871155 188.07107239 -96.03089905 188.80818176 C-96.93582092 189.86972473 -96.93582092 189.86972473 -97.85902405 190.95271301 C-101.02197822 194.31495901 -103.93341514 196.80202982 -108.7134304 197.12710953 C-109.44897966 197.13008419 -110.18452892 197.13305885 -110.94236755 197.13612366 C-111.78909531 197.1418338 -112.63582306 197.14754395 -113.50820923 197.15342712 C-114.43399277 197.15454498 -115.35977631 197.15566284 -116.31361389 197.15681458 C-117.77988976 197.16426193 -117.77988976 197.16426193 -119.27578735 197.17185974 C-122.51447754 197.18648323 -125.75311875 197.19328338 -128.99183655 197.19880676 C-131.24001568 197.20455766 -133.4881948 197.2103154 -135.7363739 197.21607971 C-140.45238982 197.22658996 -145.16838869 197.23243261 -149.88441467 197.23591614 C-155.92950308 197.24140364 -161.97436656 197.26543718 -168.01938438 197.29388809 C-172.66391155 197.31250379 -177.30838439 197.31771949 -181.95294571 197.31925201 C-184.18169511 197.32228102 -186.4104435 197.33031787 -188.63915634 197.34343719 C-191.75607724 197.36047652 -194.87244666 197.35862255 -197.98939514 197.35212708 C-198.91113022 197.36134186 -199.8328653 197.37055664 -200.78253174 197.38005066 C-205.6450815 197.34827999 -208.80774145 197.10208955 -212.78089905 193.99568176 C-213.68839905 193.29443176 -214.59589905 192.59318176 -215.53089905 191.87068176 C-218.58160189 187.97256147 -218.8612306 184.77540916 -218.78089905 179.99568176 C-218.7654303 178.80716614 -218.74996155 177.61865051 -218.73402405 176.39411926 C-218.24017564 169.14616765 -217.36361742 164.65239266 -211.90589905 159.62068176 C-207.46724493 156.08300819 -204.15993204 154.87493351 -198.54386902 154.86196899 C-197.70562592 154.85770401 -196.86738281 154.85343903 -196.0037384 154.8490448 C-195.09247192 154.84949799 -194.18120544 154.84995117 -193.24232483 154.85041809 C-191.79286972 154.84538017 -191.79286972 154.84538017 -190.31413269 154.84024048 C-187.11814592 154.83073766 -183.92221157 154.8287877 -180.72621155 154.82771301 C-178.50427733 154.82449999 -176.28234332 154.82113588 -174.06040955 154.81762695 C-169.40164194 154.81163738 -164.74289289 154.80978688 -160.0841217 154.81037903 C-154.11655924 154.81048065 -148.14911576 154.79682806 -142.1815815 154.77960682 C-137.59191848 154.76848454 -133.00228421 154.76645989 -128.4126091 154.76698875 C-126.21260544 154.765809 -124.01260102 154.76138748 -121.81261063 154.75365639 C-118.7344099 154.74385199 -115.65646726 154.74673642 -112.57826233 154.75276184 C-111.67104431 154.74714233 -110.76382629 154.74152283 -109.82911682 154.73573303 C-104.34980106 154.76296777 -99.54714964 155.09459596 -94.88246155 158.30036926 C-91.18537005 162.23219672 -90.40589905 165.00409491 -90.40589905 170.43318176 C-90.50154117 172.28909437 -90.61676099 174.1445692 -90.78089905 175.99568176 C-88.71412515 171.52214518 -87.98690742 167.06817345 -87.21839905 162.24568176 C-85.90959363 154.12437634 -85.90959363 154.12437634 -84.78089905 152.99568176 C-84.63652405 151.94380676 -84.49214905 150.89193176 -84.34339905 149.80818176 C-83.8231918 146.28233263 -82.98855661 143.33449974 -81.78089905 139.99568176 C-81.11128977 137.99666504 -80.44423424 135.99678917 -79.78089905 133.99568176 C-80.79265701 134.0023436 -81.80441498 134.00900543 -82.84683228 134.01586914 C-92.39539491 134.07676189 -101.943918 134.12169358 -111.49263096 134.15111828 C-116.40138422 134.16675451 -121.30998035 134.18795549 -126.21864319 134.22200012 C-130.95838904 134.25466639 -135.69798403 134.27255014 -140.43783379 134.28031349 C-142.24348766 134.28584396 -144.04913356 134.29664363 -145.85472298 134.31287193 C-148.38962076 134.33474296 -150.92390017 134.33764467 -153.45887756 134.33625793 C-154.20047119 134.34704376 -154.94206482 134.35782959 -155.70613098 134.36894226 C-161.69860141 134.33361708 -166.35462324 133.07410441 -170.96058655 129.12849426 C-171.52003967 128.46591614 -172.0794928 127.80333801 -172.65589905 127.12068176 C-173.23082092 126.46325989 -173.8057428 125.80583801 -174.39808655 125.12849426 C-177.77943022 119.91320148 -177.00839137 113.8284467 -175.78089905 107.99568176 C-173.12971645 100.45288057 -167.92354172 94.54672204 -160.78089905 90.99568176 C-153.9650832 89.51185505 -146.83112427 89.92329719 -139.89808655 89.99568176 C-137.87212063 89.98815463 -135.846165 89.97711309 -133.82023621 89.96272278 C-128.51644062 89.93440597 -123.21385893 89.95350197 -117.91011047 89.98280334 C-112.48675289 90.00426608 -107.06360964 89.980434 -101.64027405 89.96052551 C-91.02020918 89.92815962 -80.40087472 89.94593008 -69.78089905 89.99568176 C-69.62476135 88.89409729 -69.46862366 87.79251282 -69.30775452 86.657547 C-68.89298619 83.77473413 -68.44850695 80.91877256 -67.90589905 78.05818176 C-67.76410217 77.28603333 -67.6223053 76.51388489 -67.47621155 75.71833801 C-66.89206316 73.43097044 -66.17528083 71.45597489 -65.28871155 69.28083801 C-63.52562473 64.70806602 -63.06070424 60.21448083 -62.53089905 55.37068176 C-61.02172688 43.6504919 -56.75867427 34.59549572 -49.78089905 24.99568176 C-49.12089905 24.99568176 -48.46089905 24.99568176 -47.78089905 24.99568176 C-47.55402405 24.45943176 -47.32714905 23.92318176 -47.09339905 23.37068176 C-37.77631289 6.51119252 -18.07539484 -0.25217558 0 0 Z M-15.78089905 47.99568176 C-18.42440466 52.44816216 -19.67763581 56.9776135 -20.78089905 61.99568176 C-20.99826721 62.97778625 -21.21563538 63.95989075 -21.43959045 64.97175598 C-22.80884061 71.26575202 -24.09012223 77.57231957 -25.28773499 83.90119934 C-25.78089905 85.99568176 -25.78089905 85.99568176 -26.78089905 86.99568176 C-26.82182842 89.32865609 -26.82331628 91.66273401 -26.78089905 93.99568176 C-27.44089905 93.99568176 -28.10089905 93.99568176 -28.78089905 93.99568176 C-28.90464905 95.00630676 -29.02839905 96.01693176 -29.15589905 97.05818176 C-29.78089905 100.99568176 -29.78089905 100.99568176 -30.6910553 104.15974426 C-32.15519723 109.31310405 -33.24812943 114.5265687 -34.36878967 119.76325989 C-35.67886481 125.79161328 -35.67886481 125.79161328 -36.78089905 127.99568176 C-36.82089105 129.99528188 -36.82436704 131.99615419 -36.78089905 133.99568176 C-37.44089905 133.99568176 -38.10089905 133.99568176 -38.78089905 133.99568176 C-38.92189026 134.7769342 -39.06288147 135.55818665 -39.20814514 136.3631134 C-39.85376092 139.92880546 -40.5047805 143.49349062 -41.15589905 147.05818176 C-41.3776178 148.28730286 -41.59933655 149.51642395 -41.82777405 150.78279114 C-42.89909534 156.62779405 -44.04720184 162.31381698 -45.78089905 167.99568176 C-47.33327072 174.60102322 -48.69409691 181.22536248 -49.71839905 187.93318176 C-51.03338464 196.16565459 -53.18890702 204.31100272 -55.8707428 212.20271301 C-56.92606568 215.4411502 -57.31865932 218.62793519 -57.78089905 221.99568176 C-58.11089905 222.32568176 -58.44089905 222.65568176 -58.78089905 222.99568176 C-59.30031075 225.847994 -59.77614822 228.6937572 -60.21839905 231.55818176 C-61.30703518 238.5911168 -62.58667527 245.41301043 -64.84339905 252.18318176 C-65.94864287 256.67783997 -66.21070661 261.00301091 -66.43714905 265.61677551 C-66.7626402 268.81620556 -67.43454519 271.76848938 -68.25502014 274.87287903 C-69.18448682 278.6248348 -69.76543452 282.42617275 -70.34339905 286.24568176 C-70.47488342 287.10975647 -70.6063678 287.97383118 -70.74183655 288.86408997 C-71.61757422 294.97379771 -72.06219622 301.01804529 -72.28089905 307.18318176 C-72.52305603 313.67617526 -73.03035729 320.01926334 -74.09339905 326.43318176 C-74.19910217 327.12500549 -74.3048053 327.81682922 -74.41371155 328.52961731 C-75.22950633 333.03273725 -76.66908697 335.6775617 -79.78089905 338.99568176 C-80.37128967 339.65052551 -80.9616803 340.30536926 -81.56996155 340.98005676 C-86.83422035 346.04270566 -90.50782185 346.8946668 -97.78089905 346.99568176 C-98.11089905 350.29568176 -98.44089905 353.59568176 -98.78089905 356.99568176 C-84.59089905 356.99568176 -70.40089905 356.99568176 -55.78089905 356.99568176 C-54.79089905 354.35568176 -53.80089905 351.71568176 -52.78089905 348.99568176 C-49.43901754 340.55601491 -45.35115031 331.36348831 -38.78089905 324.99568176 C-37.91464905 323.38693176 -37.91464905 323.38693176 -37.03089905 321.74568176 C-34.19497115 316.61710717 -30.19275183 312.43130842 -25.15589905 309.43318176 C-22.55639004 308.04615051 -22.55639004 308.04615051 -20.53089905 305.18318176 C-9.08735353 290.90499653 14.82651761 282.46497836 32.21910095 279.99568176 C37.33254077 279.58809109 42.40363262 279.51820515 47.53160095 279.55818176 C48.20209473 279.56055847 48.8725885 279.56293518 49.56340027 279.56538391 C63.76769697 279.64386768 77.54490076 281.08248166 90.21910095 287.99568176 C90.54910095 288.65568176 90.87910095 289.31568176 91.21910095 289.99568176 C92.93143458 290.7201306 94.64539348 291.44127117 96.3714447 292.13240051 C98.97987718 293.35113958 101.01279158 295.16759685 103.21910095 296.99568176 C103.87910095 296.99568176 104.53910095 296.99568176 105.21910095 296.99568176 C105.43437439 297.5409552 105.64964783 298.08622864 105.8714447 298.64802551 C107.32681454 301.18332195 109.11909081 302.97537807 111.20542908 305.00227356 C123.86768319 317.50173847 132.06082334 336.3024283 132.25401306 354.23664856 C132.24249207 355.14712952 132.23097107 356.05761047 132.21910095 356.99568176 C160.62549861 357.01900709 189.03189484 357.03665913 217.43830013 357.04749393 C230.62687436 357.05265767 243.81544265 357.05970185 257.00401306 357.07112122 C268.49461816 357.08106568 279.98521895 357.08753462 291.47582823 357.08977026 C297.5641108 357.09107777 303.65238107 357.09416617 309.74065971 357.10141182 C315.46393728 357.10816829 321.18719741 357.11029949 326.91047859 357.10878944 C329.01767191 357.10906594 331.12486578 357.11107326 333.23205566 357.11488724 C336.09563345 357.11981867 338.95914425 357.1186821 341.82272339 357.11593628 C342.66803728 357.11884912 343.51335116 357.12176196 344.38428062 357.12476307 C348.10485099 357.47329837 348.10485099 357.47329837 351.21910095 355.99568176 C351.34285095 354.94380676 351.46660095 353.89193176 351.59410095 352.80818176 C352.6186068 346.55869611 356.05332798 341.38903119 359.15660095 335.93318176 C359.49111267 335.33441223 359.82562439 334.7356427 360.17027283 334.11872864 C362.24706063 330.46534277 364.537466 327.2249348 367.21910095 323.99568176 C369.51924127 320.74410976 369.51924127 320.74410976 370.21910095 316.99568176 C370.76695251 316.76493958 371.31480408 316.53419739 371.8792572 316.29646301 C374.88124009 314.62758104 377.13642075 312.51461061 379.65660095 310.18318176 C380.58343689 309.33111145 381.51027283 308.47904114 382.4651947 307.60115051 C387.20241993 303.15229951 387.20241993 303.15229951 391.59410095 298.37068176 C394.16064956 296.19898679 397.10330349 295.23024302 400.21910095 293.99568176 C400.21910095 293.33568176 400.21910095 292.67568176 400.21910095 291.99568176 C400.87910095 291.93380676 401.53910095 291.87193176 402.21910095 291.80818176 C405.05040595 291.04136999 406.32119719 290.32047558 408.65660095 288.68318176 C422.62400475 279.62394977 442.96780427 278.31571119 459.21910095 278.99568176 C460.2451947 279.02661926 461.27128845 279.05755676 462.32847595 279.08943176 C473.7375712 279.70613961 485.22937364 282.40143447 495.21910095 287.99568176 C495.87910095 287.99568176 496.53910095 287.99568176 497.21910095 287.99568176 C497.21910095 288.65568176 497.21910095 289.31568176 497.21910095 289.99568176 C498.29160095 290.59380676 499.36410095 291.19193176 500.46910095 291.80818176 C502.62363737 293.03126203 504.5497454 294.24589919 506.53160095 295.74568176 C508.13694715 297.19409095 508.13694715 297.19409095 510.21910095 296.99568176 C510.48932068 297.59171204 510.75954041 298.18774231 511.03794861 298.80183411 C512.20947901 300.97781017 513.36815077 302.37113003 515.11753845 304.09724426 C526.18157331 315.30769615 526.18157331 315.30769615 528.4573822 322.61677551 C529.60037958 326.18644426 531.40743605 329.37321344 533.1683197 332.67146301 C534.27682831 335.12336868 534.75995106 337.35235153 535.21910095 339.99568176 C535.54910095 341.04755676 535.87910095 342.09943176 536.21910095 343.18318176 C537.42384213 347.7762575 537.85797212 352.27249674 538.21910095 356.99568176 C541.07333287 357.02286492 543.9273011 357.04260881 546.78160095 357.05818176 C547.58146423 357.06656067 548.38132751 357.07493958 549.20542908 357.08357239 C553.963149 357.10299165 558.53638904 356.95763421 563.21910095 355.99568176 C566.72041571 352.13216203 567.32934876 346.98858868 568.21910095 341.99568176 C568.49947205 340.45074036 568.49947205 340.45074036 568.7855072 338.87458801 C569.9164909 332.1598666 570.32598199 325.7945031 570.21910095 318.99568176 C569.19026794 318.98109924 568.16143494 318.96651672 567.10142517 318.95149231 C563.26563148 318.89329519 559.43041173 318.81606473 555.59507751 318.73323059 C553.93859712 318.70008158 552.28200649 318.67201868 550.62535095 318.64924622 C548.23685461 318.61551445 545.84935925 318.56319217 543.46128845 318.50740051 C542.35936661 318.49781563 542.35936661 318.49781563 541.23518372 318.48803711 C535.74818861 318.33293984 531.78608591 317.01259851 527.46910095 313.62068176 C523.60845559 308.6018428 524.17419185 303.93446155 524.8011322 297.95271301 C525.30002709 294.42314823 525.95930073 291.33044706 527.21910095 287.99568176 C527.87910095 287.66568176 528.53910095 287.33568176 529.21910095 286.99568176 C530.22552846 285.33288849 531.22495503 283.66584692 532.21910095 281.99568176 C534.53893491 279.14861282 536.73641176 278.12448279 540.21910095 276.99568176 C542.95234285 276.77571074 545.59421788 276.64800719 548.32847595 276.61677551 C549.09589111 276.59978104 549.86330627 276.58278656 550.65397644 276.5652771 C553.09226891 276.51236724 555.53054546 276.47192337 557.96910095 276.43318176 C560.42185654 276.38927115 562.87448025 276.34265239 565.32707214 276.29037476 C566.85053043 276.25837735 568.37410624 276.23149979 569.89775085 276.21014404 C573.34968046 276.44897844 573.34968046 276.44897844 576.21910095 274.99568176 C576.92129164 264.02191097 576.6477323 254.51142989 569.21910095 245.99568176 C568.22910095 245.99568176 567.23910095 245.99568176 566.21910095 245.99568176 C566.21910095 245.33568176 566.21910095 244.67568176 566.21910095 243.99568176 C565.61324158 243.76493958 565.0073822 243.53419739 564.38316345 243.29646301 C559.92975994 241.56306134 555.59765234 239.74019838 551.34410095 237.55818176 C544.53876811 234.09211162 537.51770915 231.20300689 530.3558197 228.55818176 C529.68051208 228.3086676 529.00520447 228.05915344 528.30943298 227.80207825 C526.39766628 227.10075955 524.48231714 226.40922872 522.5667572 225.71833801 C520.08984206 224.80549106 517.8428666 223.79347789 515.51244259 222.54101181 C506.68965831 217.91845389 498.98016297 217.146348 489.24278259 217.25447083 C487.68410736 217.24956231 486.12543862 217.24199216 484.56678772 217.23199463 C480.37484322 217.21225468 476.1837429 217.22856718 471.99184346 217.25125217 C467.58905918 217.26819637 463.18643027 217.24944433 458.78366089 217.23414612 C450.45776862 217.21019712 442.13217301 217.21477203 433.80627197 217.23126864 C418.88122151 217.25989837 403.95619054 217.23958078 389.03115743 217.2088697 C383.79841653 217.19923594 378.56587347 217.20210469 373.3331424 217.21554518 C370.08133958 217.22236291 366.82956991 217.22132188 363.5777626 217.21853828 C362.07252536 217.21904897 360.56728464 217.22301273 359.06206703 217.23071861 C357.00439935 217.24087477 354.94708304 217.23875161 352.8894043 217.23377991 C351.73929902 217.23604206 350.58919374 217.23830421 349.40423679 217.24063492 C345.16745707 216.914805 341.52878309 216.23820072 338.39097595 213.26130676 C337.9217572 212.59615051 337.45253845 211.93099426 336.96910095 211.24568176 C336.4895697 210.59083801 336.01003845 209.93599426 335.51597595 209.26130676 C332.723262 204.38246913 331.92607037 200.52455847 332.82847595 194.98786926 C333.00515808 193.84648499 333.18184021 192.70510071 333.36387634 191.52912903 C333.56360046 190.32184143 333.76332458 189.11455383 333.96910095 187.87068176 C334.36176873 185.33604144 334.75107696 182.80087844 335.1370697 180.26521301 C335.32704529 179.02336243 335.51702087 177.78151184 335.7127533 176.50202942 C336.38246587 171.86441517 336.86488601 167.22434257 337.28160095 162.55818176 C337.97682418 154.91929967 338.98730202 147.36117095 340.11387634 139.7747345 C341.06348667 133.30142748 341.80211363 126.82757099 342.44737244 120.31770325 C343.19404837 112.91490066 344.1611849 105.54566192 345.16636658 98.17390442 C346.02581784 91.79281985 346.68465771 85.41210337 347.21910095 78.99568176 C348.70410095 78.50068176 348.70410095 78.50068176 350.21910095 77.99568176 C350.73472595 77.27380676 351.25035095 76.55193176 351.78160095 75.80818176 C356.05623215 70.87591499 361.06149234 67.5408754 367.56602478 66.4178009 C371.16946412 66.18666128 374.73346497 66.11295021 378.34410095 66.12068176 C379.5867572 66.10005676 380.82941345 66.07943176 382.10972595 66.05818176 C385.14686338 66.01145657 388.18168072 65.99120651 391.21910095 65.99568176 C386.43071148 56.28407186 379.37231832 49.11366642 369.09410095 45.18318176 C357.41025724 41.98392961 345.04148001 41.69894352 333.01249695 41.71479797 C331.55530751 41.70961227 330.09812089 41.70358095 328.64093804 41.69679117 C324.68688619 41.68086325 320.73290732 41.67708414 316.77882719 41.67559624 C312.49524767 41.6718581 308.21170445 41.65674654 303.92814636 41.64332581 C294.58974803 41.61632027 285.25136706 41.60413807 275.91293621 41.59530449 C270.07537414 41.58975817 264.23781858 41.58128026 258.40026093 41.57229614 C242.21399224 41.54794315 226.02772871 41.52733088 209.84144211 41.52054596 C208.29191438 41.51988726 208.29191438 41.51988726 206.71108307 41.51921526 C205.67573649 41.5187787 204.64038991 41.51834215 203.5736692 41.51789236 C201.47598759 41.51700545 199.37830599 41.51611233 197.28062439 41.51521301 C195.71987341 41.51454872 195.71987341 41.51454872 194.12759212 41.51387101 C177.24606945 41.50596494 160.36471887 41.47101173 143.48326275 41.42449397 C126.1211809 41.37703995 108.75918548 41.35214142 91.39703774 41.34981012 C81.66052351 41.34797932 71.92423436 41.336541 62.18778229 41.3001709 C53.90415201 41.26933387 45.6208166 41.25914922 37.33713982 41.2756471 C33.11466405 41.28344498 28.89278185 41.28167643 24.67037964 41.25353241 C20.79895958 41.22796397 16.92857637 41.23052502 13.05715683 41.25471383 C11.66307357 41.25861225 10.26891568 41.25254257 8.87493703 41.23502511 C-0.28702692 41.12725423 -8.34391016 42.2190458 -15.78089905 47.99568176 Z M384.21910095 106.99568176 C382.60869055 112.84616007 382.07681421 118.93014942 381.28160095 124.93318176 C381.19195068 125.60463226 381.10230042 126.27608276 381.00993347 126.96788025 C379.78055804 136.20525154 378.67541441 145.4433143 377.90293884 154.73176575 C377.26828178 162.21586826 376.21745832 169.50800148 375.21910095 176.99568176 C415.31410095 176.50068176 415.31410095 176.50068176 456.21910095 175.99568176 C454.46972125 171.6222325 453.10767092 169.50201875 450.21910095 165.99568176 C449.10324959 164.23358444 448.02335722 162.44829959 446.97691345 160.64411926 C446.38523376 159.62704895 445.79355408 158.60997864 445.1839447 157.56208801 C444.27322205 155.98234192 444.27322205 155.98234192 443.34410095 154.37068176 C442.74468689 153.34072083 442.14527283 152.31075989 441.5276947 151.24958801 C438.61997557 146.23519168 435.77688995 141.19886944 433.03941345 136.08943176 C430.91840394 132.17279888 428.68855925 128.64312972 425.96910095 125.12068176 C422.42904272 120.52409453 422.42904272 120.52409453 421.29722595 117.67536926 C420.76355408 116.34892395 420.76355408 116.34892395 420.21910095 114.99568176 C419.99617371 114.31070618 419.77324646 113.62573059 419.54356384 112.91999817 C418.38653624 110.26503567 417.48757355 108.82571008 415.21910095 106.99568176 C409.93238788 105.97279907 404.74990929 106.24319511 399.40660095 106.49568176 C397.93599406 106.53583485 396.46528253 106.57233252 394.99449158 106.60505676 C391.40051241 106.69297527 387.81046923 106.8308674 384.21910095 106.99568176 Z M-2.5504303 342.30818176 C-5.61584323 346.31508226 -5.61584323 346.31508226 -6.78089905 350.99568176 C-7.44089905 350.99568176 -8.10089905 350.99568176 -8.78089905 350.99568176 C-12.3870454 357.46187521 -14.2921129 363.75476731 -15.78089905 370.99568176 C-15.93816467 371.72400208 -16.0954303 372.45232239 -16.25746155 373.20271301 C-18.23281396 385.21561201 -15.54461174 397.03754091 -8.78089905 406.99568176 C-8.33875061 407.71111145 -7.89660217 408.42654114 -7.4410553 409.16365051 C-0.38584619 419.73623923 10.06911708 424.56568499 22.21910095 426.99568176 C27.97418996 427.98635878 32.52554336 427.94621378 38.21910095 426.74568176 C38.92260681 426.60291809 39.62611267 426.46015442 40.35093689 426.31306458 C52.00870531 423.86022245 63.07058054 418.93276867 71.21910095 409.99568176 C72.20910095 409.66568176 73.19910095 409.33568176 74.21910095 408.99568176 C76.62905462 406.36027158 76.62905462 406.36027158 77.21910095 402.99568176 C77.87910095 402.99568176 78.53910095 402.99568176 79.21910095 402.99568176 C80.66212868 399.9983109 82.0974828 396.99732441 83.53160095 393.99568176 C83.93572205 393.15650208 84.33984314 392.31732239 84.75621033 391.45271301 C90.22255058 379.98673101 93.95171292 369.26143499 90.1995697 356.53865051 C88.98471274 353.62079163 87.63899003 350.81803796 86.21910095 347.99568176 C85.63128845 346.23224426 85.63128845 346.23224426 85.03160095 344.43318176 C81.82252096 338.34699556 75.91953747 330.33745049 69.21910095 327.99568176 C67.89910095 327.99568176 66.57910095 327.99568176 65.21910095 327.99568176 C65.21910095 327.33568176 65.21910095 326.67568176 65.21910095 325.99568176 C43.6154222 315.43388326 12.26240676 322.95012539 -2.5504303 342.30818176 Z M410.4964447 333.67927551 C410.05429626 334.25806458 409.61214783 334.83685364 409.15660095 335.43318176 C407.3815454 337.66006963 406.08177457 339.09181023 403.71910095 340.74568176 C399.65589353 344.40256844 397.67203389 349.17013863 395.21910095 353.99568176 C394.67640564 354.95087708 394.13371033 355.90607239 393.5745697 356.89021301 C387.52318473 367.88871563 385.99739554 378.01777273 389.3636322 390.15974426 C389.64593689 391.09560364 389.92824158 392.03146301 390.21910095 392.99568176 C390.52847595 394.25380676 390.83785095 395.51193176 391.15660095 396.80818176 C395.29071627 409.21052771 402.70698314 416.79581458 414.21910095 422.99568176 C428.80250077 428.85860264 443.52682392 428.07739543 458.21910095 422.99568176 C465.22217659 419.85749491 470.84447605 415.44405795 476.21910095 409.99568176 C477.27097595 409.50068176 477.27097595 409.50068176 478.34410095 408.99568176 C480.98859895 407.58528283 481.77336836 405.57285725 483.21910095 402.99568176 C483.70378845 402.52477112 484.18847595 402.05386047 484.68785095 401.56867981 C486.33342538 399.87824039 487.16481498 398.39696758 488.15660095 396.26521301 C488.66320251 395.18336731 488.66320251 395.18336731 489.18003845 394.07966614 C489.52292908 393.33007629 489.8658197 392.58048645 490.21910095 391.80818176 C490.56199158 391.07792786 490.9048822 390.34767395 491.25816345 389.59529114 C498.15321142 374.73935764 497.68836231 364.24021457 492.35191345 348.82380676 C490.7585334 344.84585105 488.74664593 341.44303668 486.21910095 337.99568176 C485.82851501 337.44138489 485.43792908 336.88708801 485.0355072 336.31599426 C481.94109247 332.23745419 478.75103475 330.17772396 474.21910095 327.99568176 C473.22910095 327.99568176 472.23910095 327.99568176 471.21910095 327.99568176 C471.21910095 327.33568176 471.21910095 326.67568176 471.21910095 325.99568176 C452.60749152 318.72803601 426.31199994 318.22234965 410.4964447 333.67927551 Z " fill="#000000" transform="translate(245.78089904785156,16.004318237304688)"/>
<path d="M0 0 C1.3580928 -0.01441132 1.3580928 -0.01441132 2.74362183 -0.02911377 C3.73202057 -0.03336365 4.72041931 -0.03761353 5.73876953 -0.04199219 C6.75448029 -0.04769226 7.77019104 -0.05339233 8.81668091 -0.05926514 C10.97722324 -0.06873839 13.13778017 -0.07525829 15.29833984 -0.07910156 C18.57302045 -0.08872449 21.84705116 -0.11969095 25.12158203 -0.15136719 C27.22314081 -0.15790541 29.32470408 -0.16315266 31.42626953 -0.16699219 C32.39442596 -0.17933899 33.3625824 -0.19168579 34.3600769 -0.20440674 C44.84931777 -0.17080797 54.757534 2.00628257 62.74658203 9.16113281 C68.00033419 15.5712132 69.50538432 21.91845699 68.74658203 30.16113281 C67.41979709 38.23848287 62.79666918 43.85225083 56.74658203 49.16113281 C52.60214909 51.77457754 48.38349925 53.61549374 43.74658203 55.16113281 C44.82939453 55.84175781 44.82939453 55.84175781 45.93408203 56.53613281 C53.35741133 63.46457349 55.09989554 73.57714402 57.05908203 83.16113281 C57.45450195 84.99998047 57.45450195 84.99998047 57.85791016 86.87597656 C59.74658203 95.7551872 59.74658203 95.7551872 59.74658203 98.16113281 C48.85658203 98.16113281 37.96658203 98.16113281 26.74658203 98.16113281 C24.49658203 85.53613281 24.49658203 85.53613281 23.81591797 81.58837891 C22.36308474 73.12538273 22.36308474 73.12538273 17.74658203 66.16113281 C14.63723185 64.73334007 14.63723185 64.73334007 11.74658203 64.16113281 C11.60559082 64.87132568 11.46459961 65.58151855 11.31933594 66.31323242 C10.67112821 69.57524091 10.02136569 72.83693789 9.37158203 76.09863281 C9.03900391 77.7740918 9.03900391 77.7740918 8.69970703 79.48339844 C8.37099609 81.13178711 8.37099609 81.13178711 8.03564453 82.81347656 C7.737146 84.31382446 7.737146 84.31382446 7.43261719 85.84448242 C6.58145959 89.9594205 5.65813364 94.05915057 4.74658203 98.16113281 C-5.15341797 98.16113281 -15.05341797 98.16113281 -25.25341797 98.16113281 C-23.94431482 90.30651394 -22.56435541 82.549229 -20.89794922 74.77441406 C-20.67530899 73.72511719 -20.45266876 72.67582031 -20.22328186 71.59472656 C-19.50672082 68.22047818 -18.78647165 64.84703063 -18.06591797 61.47363281 C-17.57043493 59.14644623 -17.07515624 56.81921612 -16.58007812 54.49194336 C-15.83845818 51.0061746 -15.09658276 47.52046198 -14.35357666 44.0349884 C-12.89136771 37.17355845 -11.44207375 30.30960372 -10.00732422 23.44238281 C-9.52885239 21.15884774 -9.05014323 18.87536255 -8.57138062 16.59188843 C-8.27719816 15.18510247 -7.98424005 13.77805989 -7.6925354 12.37075806 C-7.2968864 10.46295026 -6.89640604 8.55614624 -6.49560547 6.64941406 C-6.27759277 5.60309814 -6.05958008 4.55678223 -5.83496094 3.47875977 C-4.87127017 -0.36184326 -3.70464562 0.03163692 0 0 Z M20.74658203 21.16113281 C19.09658203 28.09113281 17.44658203 35.02113281 15.74658203 42.16113281 C26.38150515 42.44882735 26.38150515 42.44882735 34.12158203 36.91113281 C36.23515911 33.33431007 36.33161889 31.2563908 35.74658203 27.16113281 C33.60978918 23.77173726 32.56910533 22.43530725 28.74658203 21.16113281 C26.10658203 21.16113281 23.46658203 21.16113281 20.74658203 21.16113281 Z " fill="#000000" transform="translate(326.25341796875,134.8388671875)"/>
<path d="M0 0 C1.09920273 0.00222061 2.19840546 0.00444122 3.33091736 0.00672913 C4.57212845 0.00680466 5.81333954 0.00688019 7.09216309 0.00695801 C8.45682311 0.01206541 9.82148274 0.01728142 11.18614197 0.02259827 C12.57476755 0.02446251 13.96339379 0.02588638 15.35202026 0.02688599 C19.01319686 0.03071065 22.67433402 0.04054048 26.335495 0.05158997 C30.06890835 0.06180519 33.80232805 0.06638384 37.53575134 0.07142639 C44.86584748 0.08216281 52.19591108 0.0992386 59.52598572 0.12025452 C59.262085 1.87131337 58.98932396 3.62103642 58.71348572 5.37025452 C58.48725525 6.83205139 58.48725525 6.83205139 58.25645447 8.32337952 C57.23429781 13.63640773 55.83821492 18.87133772 54.52598572 24.12025452 C43.96598572 24.12025452 33.40598572 24.12025452 22.52598572 24.12025452 C22.19598572 26.76025452 21.86598572 29.40025452 21.52598572 32.12025452 C21.19598572 33.44025452 20.86598572 34.76025452 20.52598572 36.12025452 C30.09598572 36.12025452 39.66598572 36.12025452 49.52598572 36.12025452 C48.84331925 41.58158623 48.09607282 46.70196858 47.02598572 52.05775452 C46.89579041 52.72871155 46.76559509 53.39966858 46.63145447 54.09095764 C45.64925729 58.99698295 45.64925729 58.99698295 44.52598572 60.12025452 C42.38211915 60.27884294 40.23331733 60.3715475 38.08457947 60.43666077 C36.1268158 60.49950256 36.1268158 60.49950256 34.12950134 60.56361389 C32.74083242 60.60343059 31.3521605 60.64314277 29.96348572 60.68275452 C28.57089388 60.72593441 27.17831544 60.76954852 25.78575134 60.81361389 C22.36596023 60.92011258 18.94598676 61.02072507 15.52598572 61.12025452 C14.04098572 67.55525452 14.04098572 67.55525452 12.52598572 74.12025452 C23.41598572 74.12025452 34.30598572 74.12025452 45.52598572 74.12025452 C44.89062312 79.83851793 44.23432033 85.06191531 43.02598572 90.62025452 C42.76817322 91.82681702 42.51036072 93.03337952 42.24473572 94.27650452 C41.52598572 97.12025452 41.52598572 97.12025452 40.52598572 98.12025452 C38.56229419 98.21426122 36.59519373 98.23768833 34.6292572 98.23377991 C33.36802536 98.23370438 32.10679352 98.23362885 30.80734253 98.23355103 C29.42058778 98.22844362 28.03383343 98.22322761 26.64707947 98.21791077 C25.23603363 98.21604653 23.82498715 98.21462265 22.41394043 98.21362305 C18.69358037 98.20979831 14.97325912 98.19996841 11.25291443 98.18891907 C7.45917791 98.17870399 3.66543514 98.17412522 -0.12831116 98.16908264 C-7.57689659 98.1583461 -15.02545001 98.14127022 -22.47401428 98.12025452 C-21.40537047 91.5105359 -20.29146216 84.93718303 -18.85292053 78.39759827 C-18.55581075 77.0317639 -18.25894429 75.66587659 -17.96229553 74.29994202 C-17.81099182 73.60739319 -17.65968811 72.91484436 -17.50379944 72.2013092 C-14.38447285 57.97709118 -14.38447285 57.97709118 -11.97401428 43.62025452 C-10.67978073 34.4957458 -8.75695282 25.50703638 -6.84901428 16.49525452 C-6.69054016 15.74091125 -6.53206604 14.98656799 -6.36878967 14.20936584 C-5.91631389 12.06145461 -5.4580809 9.91486787 -4.99745178 7.76869202 C-4.72852112 6.51233948 -4.45959045 5.25598694 -4.18251038 3.96156311 C-3.23386849 0.15718878 -3.23386849 0.15718878 0 0 Z " fill="#000000" transform="translate(419.47401428222656,134.87974548339844)"/>
<path d="M0 0 C1.09920273 0.00222061 2.19840546 0.00444122 3.33091736 0.00672913 C4.57212845 0.00680466 5.81333954 0.00688019 7.09216309 0.00695801 C8.45682311 0.01206541 9.82148274 0.01728142 11.18614197 0.02259827 C12.57476755 0.02446251 13.96339379 0.02588638 15.35202026 0.02688599 C19.01319686 0.03071065 22.67433402 0.04054048 26.335495 0.05158997 C30.06890835 0.06180519 33.80232805 0.06638384 37.53575134 0.07142639 C44.86584748 0.08216281 52.19591108 0.0992386 59.52598572 0.12025452 C59.262085 1.87131337 58.98932396 3.62103642 58.71348572 5.37025452 C58.48725525 6.83205139 58.48725525 6.83205139 58.25645447 8.32337952 C57.23429781 13.63640773 55.83821492 18.87133772 54.52598572 24.12025452 C43.96598572 24.12025452 33.40598572 24.12025452 22.52598572 24.12025452 C22.19598572 26.76025452 21.86598572 29.40025452 21.52598572 32.12025452 C21.19598572 33.44025452 20.86598572 34.76025452 20.52598572 36.12025452 C30.09598572 36.12025452 39.66598572 36.12025452 49.52598572 36.12025452 C48.84331925 41.58158623 48.09607282 46.70196858 47.02598572 52.05775452 C46.89579041 52.72871155 46.76559509 53.39966858 46.63145447 54.09095764 C45.64925729 58.99698295 45.64925729 58.99698295 44.52598572 60.12025452 C42.38211915 60.27884294 40.23331733 60.3715475 38.08457947 60.43666077 C36.1268158 60.49950256 36.1268158 60.49950256 34.12950134 60.56361389 C32.74083242 60.60343059 31.3521605 60.64314277 29.96348572 60.68275452 C28.57089388 60.72593441 27.17831544 60.76954852 25.78575134 60.81361389 C22.36596023 60.92011258 18.94598676 61.02072507 15.52598572 61.12025452 C14.04098572 67.55525452 14.04098572 67.55525452 12.52598572 74.12025452 C23.41598572 74.12025452 34.30598572 74.12025452 45.52598572 74.12025452 C44.89062312 79.83851793 44.23432033 85.06191531 43.02598572 90.62025452 C42.76817322 91.82681702 42.51036072 93.03337952 42.24473572 94.27650452 C41.52598572 97.12025452 41.52598572 97.12025452 40.52598572 98.12025452 C38.56229419 98.21426122 36.59519373 98.23768833 34.6292572 98.23377991 C33.36802536 98.23370438 32.10679352 98.23362885 30.80734253 98.23355103 C29.42058778 98.22844362 28.03383343 98.22322761 26.64707947 98.21791077 C25.23603363 98.21604653 23.82498715 98.21462265 22.41394043 98.21362305 C18.69358037 98.20979831 14.97325912 98.19996841 11.25291443 98.18891907 C7.45917791 98.17870399 3.66543514 98.17412522 -0.12831116 98.16908264 C-7.57689659 98.1583461 -15.02545001 98.14127022 -22.47401428 98.12025452 C-21.30209782 90.82210936 -20.00968436 83.57584821 -18.45057678 76.35072327 C-18.06719753 74.54802288 -17.683984 72.74528724 -17.30091858 70.94252014 C-17.00597 69.56060486 -17.00597 69.56060486 -16.70506287 68.15077209 C-13.82377557 54.63444578 -10.98694216 41.13541372 -8.72718811 27.49940491 C-7.7116069 21.38511871 -6.55374951 15.31251982 -5.28651428 9.24525452 C-5.03550964 8.02902405 -5.03550964 8.02902405 -4.7794342 6.78822327 C-3.36852864 0.16373421 -3.36852864 0.16373421 0 0 Z " fill="#000000" transform="translate(497.47401428222656,134.87974548339844)"/>
<path d="M0 0 C0.7437085 0.00128906 1.48741699 0.00257813 2.25366211 0.00390625 C7.88393497 0.10232684 12.42769177 1.04458368 17.625 3.3125 C17.625 3.9725 17.625 4.6325 17.625 5.3125 C18.6459375 5.3434375 18.6459375 5.3434375 19.6875 5.375 C25.86347849 7.34605696 30.722311 13.72213599 33.625 19.3125 C37.22275362 30.79011616 36.37348066 45.25581876 31.625 56.3125 C29.58000334 59.60780549 27.2394915 62.45492561 24.625 65.3125 C24.04234375 65.96347656 23.4596875 66.61445313 22.859375 67.28515625 C19.11924441 71.25272721 15.45679834 73.80712308 10.625 76.3125 C9.86840088 76.83610107 9.11180176 77.35970215 8.33227539 77.89916992 C4.99260845 79.6426393 2.68889949 79.68540424 -1.06640625 79.67578125 C-2.97776367 79.67481445 -2.97776367 79.67481445 -4.92773438 79.67382812 C-5.58604248 79.66552979 -6.24435059 79.65723145 -6.92260742 79.64868164 C-8.93513898 79.62502775 -10.94634845 79.62813623 -12.95898438 79.63476562 C-24.93442141 79.56806699 -24.93442141 79.56806699 -29.796875 75.07421875 C-32.51096764 72.16684982 -35.09348999 69.19085569 -37.625 66.125 C-38.07101562 65.59197266 -38.51703125 65.05894531 -38.9765625 64.50976562 C-45.20361252 57.00900083 -43.86096754 48.03338366 -43.06640625 38.6796875 C-41.25899723 25.14811201 -35.68470178 16.26377574 -25.19140625 7.625 C-17.60790611 2.14530957 -9.27224155 -0.06677433 0 0 Z " fill="#000000" transform="translate(692.375,349.6875)"/>
<path d="M0 0 C6.11012691 5.0774294 9.46613016 10.89173915 11.125 18.625 C11.43570183 22.32013245 11.32469651 25.92562217 11.125 29.625 C11.0940625 30.63175781 11.063125 31.63851562 11.03125 32.67578125 C10.68663338 39.45611321 9.41534382 44.68807529 6.125 50.625 C5.609375 51.615 5.09375 52.605 4.5625 53.625 C0.71645942 58.35858841 -4.08357048 61.88700534 -8.875 65.625 C-9.73222656 66.33398438 -10.58945312 67.04296875 -11.47265625 67.7734375 C-15.89773764 71.18398803 -18.80275473 71.87969512 -24.43359375 71.890625 C-26.34301758 71.89449219 -26.34301758 71.89449219 -28.29101562 71.8984375 C-28.95141846 71.89424805 -29.61182129 71.89005859 -30.29223633 71.88574219 C-32.30255446 71.87505288 -34.31197543 71.88564407 -36.32226562 71.8984375 C-37.59650391 71.89585937 -38.87074219 71.89328125 -40.18359375 71.890625 C-41.34689209 71.88836914 -42.51019043 71.88611328 -43.70874023 71.88378906 C-48.26294753 71.51155838 -50.93486599 70.59619931 -54.12109375 67.3046875 C-54.84425781 66.37914062 -55.56742188 65.45359375 -56.3125 64.5 C-57.47072266 63.02466797 -57.47072266 63.02466797 -58.65234375 61.51953125 C-59.38582031 60.56433594 -60.11929688 59.60914063 -60.875 58.625 C-61.49503906 57.84511719 -62.11507812 57.06523437 -62.75390625 56.26171875 C-69.46617467 47.67325 -68.48294089 38.69713456 -67.3125 28.125 C-66.14085031 21.13724752 -63.24182227 15.19868666 -58.875 9.625 C-56.70703125 8.41015625 -56.70703125 8.41015625 -54.875 7.625 C-54.565625 7.00625 -54.25625 6.3875 -53.9375 5.75 C-50.9111796 -0.3026408 -42.76841884 -3.62304437 -36.875 -6.375 C-23.92844984 -10.0182503 -10.70858651 -7.81484226 0 0 Z " fill="#000000" transform="translate(310.875,357.375)"/>
<path d="M0 0 C1.62215675 0.00333092 1.62215675 0.00333092 3.27708435 0.00672913 C4.49827469 0.00680466 5.71946503 0.00688019 6.97766113 0.00695801 C8.32022644 0.0120654 9.66279134 0.01728141 11.00535583 0.02259827 C12.37156116 0.02446252 13.73776716 0.02588639 15.10397339 0.02688599 C18.70596654 0.03071058 22.30791959 0.04054035 25.90989685 0.05158997 C29.58298703 0.06180536 33.25608368 0.06638388 36.92918396 0.07142639 C44.14079081 0.08216268 51.35236459 0.09923838 58.56394958 0.12025452 C58.4140585 1.5390658 58.26192463 2.95764023 58.10887146 4.37611389 C57.98216064 5.56110474 57.98216064 5.56110474 57.85289001 6.77003479 C57.44378188 10.09768958 56.77588648 13.34534479 56.06394958 16.62025452 C55.80613708 17.82681702 55.54832458 19.03337952 55.28269958 20.27650452 C54.56394958 23.12025452 54.56394958 23.12025452 53.56394958 24.12025452 C51.18826439 24.20865122 48.84186285 24.23555757 46.46629333 24.21791077 C45.4030056 24.21578835 45.4030056 24.21578835 44.3182373 24.21362305 C42.04593246 24.20800894 39.77372483 24.19545415 37.50144958 24.18275452 C35.96434163 24.17774133 34.42723213 24.17317811 32.89012146 24.16908264 C29.11469317 24.15803494 25.33933788 24.14076093 21.56394958 24.12025452 C21.51496521 24.68873108 21.46598083 25.25720764 21.41551208 25.84291077 C21.34074646 26.6150592 21.26598083 27.38720764 21.18894958 28.18275452 C21.11934021 28.93685608 21.04973083 29.69095764 20.97801208 30.46791077 C20.46645536 33.74476944 19.47507549 36.93131384 18.56394958 40.12025452 C28.13394958 40.12025452 37.70394958 40.12025452 47.56394958 40.12025452 C45.56394958 52.12025452 45.56394958 52.12025452 42.56394958 64.12025452 C32.99394958 64.45025452 23.42394958 64.78025452 13.56394958 65.12025452 C10.09894958 81.45525452 10.09894958 81.45525452 6.56394958 98.12025452 C-3.33605042 98.12025452 -13.23605042 98.12025452 -23.43605042 98.12025452 C-22.12694727 90.26563565 -20.74698786 82.5083507 -19.08058167 74.73353577 C-18.85794144 73.68423889 -18.63530121 72.63494202 -18.40591431 71.55384827 C-17.68935327 68.17959988 -16.96910409 64.80615234 -16.24855042 61.43275452 C-15.75306737 59.10556793 -15.25778868 56.77833783 -14.76271057 54.45106506 C-14.02109062 50.96529631 -13.27921521 47.47958368 -12.53620911 43.99411011 C-11.07400016 37.13268016 -9.6247062 30.26872543 -8.18995667 23.40150452 C-7.71148484 21.11796945 -7.23277568 18.83448425 -6.75401306 16.55101013 C-6.45983061 15.14422417 -6.16687249 13.7371816 -5.87516785 12.32987976 C-5.47951885 10.42207197 -5.07903849 8.51526795 -4.67823792 6.60853577 C-4.46022522 5.56221985 -4.24221252 4.51590393 -4.01759338 3.43788147 C-3.19452362 0.1576962 -3.19452362 0.1576962 0 0 Z " fill="#000000" transform="translate(247.43605041503906,134.87974548339844)"/>
</svg>
