<?xml version="1.0" encoding="UTF-8"?>
<svg version="1.1" xmlns="http://www.w3.org/2000/svg" width="1000" height="550">
<path d="M0 0 C1.22405226 -0.00262956 1.22405226 -0.00262956 2.47283286 -0.00531223 C5.21275447 -0.00997159 7.95262301 -0.00750688 10.69254684 -0.00507832 C12.67462767 -0.00694632 14.65670812 -0.00924698 16.63878798 -0.01194364 C22.09008694 -0.01806937 27.54137059 -0.01792713 32.9926722 -0.01674926 C38.87011595 -0.01654545 44.74755474 -0.02206216 50.62499619 -0.02680683 C62.14189969 -0.03511824 73.65879808 -0.0378619 85.17570433 -0.03841921 C94.53617506 -0.03887875 103.89664419 -0.04093709 113.25711441 -0.04411983 C115.95153292 -0.04501738 118.64595143 -0.04590719 121.34036994 -0.04679471 C122.01021269 -0.04701576 122.68005544 -0.04723681 123.37019645 -0.04746456 C142.21219563 -0.05361892 161.05419423 -0.0575651 179.89619446 -0.05712128 C180.60660196 -0.0571057 181.31700947 -0.05709012 182.04894447 -0.05707407 C185.64958009 -0.05699096 189.25021571 -0.05689192 192.85085133 -0.05678936 C193.56594929 -0.05676942 194.28104726 -0.05674947 195.01781486 -0.05672892 C196.46391757 -0.05668848 197.91002028 -0.05664669 199.35612298 -0.05660353 C221.85326015 -0.05599083 244.35038225 -0.06349637 266.84751511 -0.07717609 C292.12367056 -0.09253932 317.3998161 -0.10114217 342.67597651 -0.10021287 C345.37165244 -0.10013824 348.06732837 -0.10008953 350.7630043 -0.10005856 C351.42674645 -0.1000469 352.0904886 -0.10003525 352.77434415 -0.10002324 C362.79108238 -0.09999438 372.80780824 -0.10534144 382.824543 -0.11339092 C394.21884484 -0.12248864 405.61312198 -0.12467717 417.00742587 -0.1178815 C422.82123871 -0.11461259 428.63500413 -0.11457303 434.44881248 -0.12323475 C439.77217534 -0.13108423 445.09545305 -0.12968415 450.41881379 -0.12095062 C452.34342989 -0.11941221 454.26805229 -0.1212446 456.19266096 -0.12681069 C477.53538778 -0.18444138 495.38503033 4.05381751 511.70347214 18.94894695 C515.92553889 23.38569506 519.55073247 28.32211759 523.26841354 33.17990398 C525.8400311 36.50029404 528.49670596 39.75062009 531.15269089 43.00363445 C531.69482224 43.66919353 532.23695358 44.33475262 532.79551315 45.02048016 C534.45517915 47.05739864 536.11622072 49.09318741 537.77769089 51.12863445 C539.98746244 53.8357989 542.19608527 56.54388866 544.40269089 59.25363445 C545.21238327 60.24786419 545.21238327 60.24786419 546.03843307 61.26217937 C549.54223599 65.57622346 552.98721532 69.93197252 556.40269089 74.31613445 C559.94746161 78.86618651 563.58782235 83.31084808 567.34019089 87.69113445 C571.32074983 92.33873243 575.10269359 97.09578074 578.79966354 101.97482586 C582.32506651 106.60062773 586.00311407 111.08930571 589.71519089 115.56613445 C594.45031252 121.27766819 599.10392856 127.03823946 603.6641655 132.89010906 C607.14614328 137.34930553 610.70009896 141.74588777 614.27769089 146.12863445 C618.78107917 151.64672193 623.21950128 157.20852983 627.60044479 162.82419109 C631.7475546 168.1254565 635.99689618 173.34146916 640.27573776 178.53683758 C640.78942917 179.16396648 641.30312057 179.79109539 641.83237839 180.4372282 C642.33865768 181.04913006 642.84493698 181.66103191 643.36655807 182.29147625 C644.77769089 184.12863445 644.77769089 184.12863445 645.8841362 186.02243328 C649.45627707 192.06063284 654.24149197 193.15027684 660.77769089 194.94113445 C663.02859876 195.61257761 665.27856283 196.28719087 667.52769089 196.96457195 C668.70847214 197.31358562 669.88925339 197.6625993 671.10581589 198.02218914 C714.59677612 211.12731093 714.59677612 211.12731093 730.77769089 226.12863445 C731.29315475 226.60317059 731.80861862 227.07770672 732.33970261 227.56662273 C748.07178353 242.19485802 759.7994726 261.1779757 760.87923241 283.19956303 C760.92786814 285.52615151 760.9470269 287.85110923 760.95469284 290.178195 C760.96454964 291.49680775 760.96454964 291.49680775 760.97460556 292.84205914 C760.99421414 295.73315823 761.00597326 298.62420568 761.01597214 301.5153532 C761.02004766 302.50895163 761.02412319 303.50255005 761.02832222 304.52625751 C761.04912995 309.78556004 761.06345451 315.04483688 761.0728569 320.30417156 C761.08391048 325.70957108 761.1183138 331.11455777 761.1580286 336.51981163 C761.18428621 340.70052591 761.19255683 344.8811431 761.19613838 349.06193256 C761.20098063 351.05325197 761.2125264 353.04456774 761.23117638 355.0358057 C761.38436243 372.47484652 758.94786056 386.66034136 746.59019089 399.87863445 C736.33763637 409.61425345 725.25778881 412.48286596 711.49253464 412.32394695 C710.55083923 412.32111706 709.60914383 412.31828716 708.6389122 412.31537151 C705.66420298 412.30427652 702.68980738 412.27919248 699.71519089 412.25363445 C697.68459631 412.24359083 695.65399696 412.23446741 693.62339401 412.2262907 C688.67470753 412.2043723 683.72625217 412.16991745 678.77769089 412.12863445 C678.57989029 413.15550114 678.57989029 413.15550114 678.37809372 414.2031126 C678.20219711 415.10222866 678.02630051 416.00134472 677.8450737 416.92770672 C677.67195663 417.81853451 677.49883957 418.7093623 677.32047653 419.62718487 C672.85871014 440.18941567 657.54246247 459.43608136 640.58237839 471.37863445 C616.78586931 486.51665469 589.09299396 492.16883015 561.15269089 487.00363445 C535.97711562 481.37986294 514.65915545 466.18982639 500.71519089 444.62863445 C497.30047025 439.16765131 494.48967034 433.65582647 492.21519089 427.62863445 C491.97598923 426.99506023 491.73678757 426.36148602 491.49033737 425.70871258 C489.84934523 421.03871477 489.41510773 417.2279692 488.77769089 412.12863445 C390.10769089 412.45863445 291.43769089 412.78863445 189.77769089 413.12863445 C188.12769089 418.40863445 186.47769089 423.68863445 184.77769089 429.12863445 C183.40749944 432.23308975 182.10342321 435.07406782 180.46519089 438.00363445 C180.07839157 438.71141033 179.69159225 439.41918621 179.29307175 440.14840984 C176.02088238 445.98754653 172.3175385 451.19624362 167.77769089 456.12863445 C167.03003464 456.95621258 166.28237839 457.7837907 165.51206589 458.63644695 C148.40661759 476.67993596 124.52163793 487.66602809 99.62925339 488.4294157 C97.55381941 488.44880153 95.4781847 488.4524222 93.40269089 488.44113445 C92.30706833 488.4354948 91.21144577 488.42985516 90.08262253 488.42404461 C68.08030132 488.09455622 48.62500954 480.11508768 31.77769089 466.12863445 C30.97460495 465.4841032 30.17151901 464.83957195 29.34409714 464.17550945 C15.45993467 452.47902313 4.18236387 434.10956366 0.77769089 416.12863445 C0.77769089 414.80863445 0.77769089 413.48863445 0.77769089 412.12863445 C-0.0225148 412.1375169 -0.82272049 412.14639935 -1.64717484 412.15555096 C-9.23693336 412.23613707 -16.8264806 412.29682023 -24.41655731 412.33588314 C-28.31749036 412.35664187 -32.21806604 412.38474086 -36.11879349 412.43039227 C-39.89248729 412.47427395 -43.66584023 412.49785932 -47.43976974 412.50814342 C-48.87010682 412.51545979 -50.30042803 412.52974392 -51.73061752 412.55155468 C-64.85120203 412.7434495 -75.79480668 410.4383656 -86.22230911 402.12863445 C-86.83719193 401.6387907 -87.45207474 401.14894695 -88.08559036 400.64425945 C-94.73377598 394.68890028 -100.76614566 385.06505469 -101.36275101 375.99307537 C-101.36957901 375.22666729 -101.37640701 374.46025921 -101.38344193 373.67062664 C-101.39304947 372.79581646 -101.40265701 371.92100628 -101.41255569 371.0196867 C-101.41680557 370.08110821 -101.42105545 369.14252972 -101.42543411 368.17550945 C-101.43113419 367.20132061 -101.43683426 366.22713177 -101.44270706 365.22342205 C-101.45214646 363.16237756 -101.45868683 361.10131805 -101.46254349 359.04025555 C-101.47223052 355.90407895 -101.50325662 352.76856307 -101.53480911 349.6325407 C-101.54134157 347.62603416 -101.54659109 345.61952295 -101.55043411 343.61300945 C-101.56278091 342.68252789 -101.57512772 341.75204632 -101.58784866 340.79336834 C-101.56528323 334.12081605 -100.76265193 328.31110383 -96.46059036 322.9216032 C-91.74351775 318.98911468 -86.66958087 315.12863445 -80.22230911 315.12863445 C-80.16623489 313.66683758 -80.16623489 313.66683758 -80.10902786 312.17550945 C-79.66723383 302.22351756 -78.77116252 292.35842385 -77.67934036 282.45675945 C-77.53935623 281.16979168 -77.3993721 279.88282391 -77.25514603 278.55685711 C-76.91297876 275.4138793 -76.56865605 272.27115394 -76.22230911 269.12863445 C-76.96431564 269.13973751 -77.70632217 269.15084057 -78.47081375 269.16228008 C-85.50192862 269.26293198 -92.53278927 269.3388256 -99.56442451 269.38769531 C-103.17856612 269.4136658 -106.79210693 269.44882854 -110.40590286 269.50583172 C-113.90080573 269.56060746 -117.3951349 269.59014908 -120.89043427 269.60302067 C-122.8567919 269.61660345 -124.82292229 269.65556286 -126.78892899 269.695117 C-134.60923861 269.69753679 -140.76275946 268.78879592 -147.22230911 264.12863445 C-151.37588565 259.68157837 -151.90391022 254.50886544 -151.78480911 248.69113445 C-151.76946121 247.56735394 -151.76946121 247.56735394 -151.75380325 246.42087078 C-151.56467909 241.51060737 -150.88817289 237.76610465 -147.99965286 233.6716032 C-140.46615568 227.13153422 -133.17776823 227.59992571 -123.66371536 227.73800945 C-122.14915085 227.74547907 -120.6345766 227.7511686 -119.11999893 227.75516033 C-115.15286992 227.77036023 -111.18633597 227.80959196 -107.21944046 227.85397625 C-102.44954855 227.90228622 -97.67945655 227.92048996 -92.9093895 227.94378948 C-85.6799501 227.9824478 -78.4518138 228.05913855 -71.22230911 228.12863445 C-70.23230911 217.89863445 -69.24230911 207.66863445 -68.22230911 197.12863445 C-71.19230911 199.60363445 -71.19230911 199.60363445 -74.22230911 202.12863445 C-78.10264856 204.88463791 -82.50588003 204.43141783 -87.08656693 204.43503094 C-87.98138275 204.44335445 -88.87619858 204.45167797 -89.79813004 204.46025372 C-92.75727565 204.48435442 -95.71620074 204.49312672 -98.67543411 204.4997282 C-100.73563579 204.50869573 -102.7958368 204.5178176 -104.85603714 204.52708721 C-109.17687436 204.54358083 -113.49763407 204.55127779 -117.81850052 204.55417156 C-123.34445479 204.55955026 -128.8696763 204.59720791 -134.39542389 204.64291573 C-138.6523489 204.6727204 -142.90909836 204.6798959 -147.16611862 204.68089771 C-149.20261612 204.68509459 -151.23911439 204.69750741 -153.27550888 204.71841526 C-156.13103773 204.74539495 -158.98488021 204.74048415 -161.84047318 204.72799969 C-163.09233162 204.75025112 -163.09233162 204.75025112 -164.36948013 204.77295208 C-170.41849692 204.69797689 -174.55520001 203.0066767 -179.22230911 199.12863445 C-184.68188129 192.12918294 -184.95775373 185.77010873 -184.22230911 177.12863445 C-182.6609162 171.71467426 -179.97482306 168.21776852 -175.22230911 165.12863445 C-174.69357193 164.77143826 -174.16483475 164.41424206 -173.62007523 164.04622173 C-169.9441265 162.63949412 -166.24174796 162.82530131 -162.3580513 162.82223797 C-161.46323547 162.81391445 -160.56841965 162.80559093 -159.64648819 162.79701519 C-156.68734257 162.77291448 -153.72841749 162.76414219 -150.76918411 162.7575407 C-148.70898244 162.74857318 -146.64878143 162.73945131 -144.58858109 162.73018169 C-140.26774387 162.71368807 -135.94698416 162.70599111 -131.62611771 162.70309734 C-126.10016343 162.69771864 -120.57494193 162.660061 -115.04919434 162.61435318 C-110.79226933 162.5845485 -106.53551987 162.57737301 -102.2784996 162.57637119 C-100.24200211 162.57217432 -98.20550383 162.55976149 -96.16910934 162.53885365 C-93.3135805 162.51187395 -90.45973801 162.51678476 -87.60414505 162.52926922 C-86.35228661 162.50701778 -86.35228661 162.50701778 -85.07513809 162.48431683 C-79.04266733 162.55908693 -74.8583685 164.22519923 -70.22230911 168.12863445 C-68.6547851 170.05907939 -67.47775612 171.96926559 -66.22230911 174.12863445 C-65.89230911 174.12863445 -65.56230911 174.12863445 -65.22230911 174.12863445 C-63.90230911 162.90863445 -62.58230911 151.68863445 -61.22230911 140.12863445 C-68.8058638 140.19824383 -68.8058638 140.19824383 -76.54262161 140.26925945 C-79.75097556 140.28970455 -82.95924886 140.30896068 -86.16762161 140.32394695 C-91.25698461 140.34783218 -96.34605896 140.37604804 -101.43519974 140.43039227 C-105.53953967 140.47394463 -109.64356994 140.49779133 -113.74812317 140.50814342 C-115.31180443 140.51551803 -116.87546928 140.52991912 -118.43901825 140.55155468 C-120.63424037 140.58071508 -122.82819312 140.58458542 -125.02357864 140.58273602 C-126.27156235 140.59161846 -127.51954605 140.60050091 -128.80534744 140.60965252 C-133.99820814 139.87863472 -137.79320808 137.13168758 -141.03480911 133.06613445 C-145.46926385 127.11129523 -144.89857797 120.27998327 -144.22230911 113.12863445 C-142.352085 107.15733593 -139.69477632 104.04083565 -134.19722176 100.98401928 C-131.00714631 99.60231658 -127.86057166 99.60300381 -124.45106888 99.67453289 C-123.33762856 99.67365673 -123.33762856 99.67365673 -122.20169449 99.67276287 C-119.77187609 99.67552803 -117.34331683 99.706543 -114.91371536 99.73800945 C-113.21978805 99.74547749 -111.52585206 99.75116776 -109.83191299 99.75516033 C-105.39134395 99.77037252 -100.95130512 99.8096156 -96.51094437 99.85397625 C-91.97274827 99.89502475 -87.4344658 99.91319173 -82.89613724 99.93332195 C-74.0046293 99.97611469 -65.11351344 100.04431187 -56.22230911 100.12863445 C-56.1390538 99.45148891 -56.05579849 98.77434338 -55.97002029 98.07667828 C-55.09762797 90.98634661 -54.22079139 83.89657434 -53.34144974 76.80710125 C-53.01412778 74.16632743 -52.68861579 71.52534861 -52.36391068 68.88424969 C-51.89519407 65.07341115 -51.42240667 61.26309564 -50.94887161 57.4528532 C-50.80607773 56.2846957 -50.66328384 55.1165382 -50.51616287 53.91298199 C-48.53328232 38.04458844 -46.02478731 22.21582916 -33.22230911 11.12863445 C-22.73031081 3.35794905 -13.06927029 -0.03566937 0 0 Z M-5.05476856 42.26541615 C-7.56581203 45.58238552 -8.21127262 47.85425001 -8.90295792 51.94012737 C-9.01762986 52.59519044 -9.1323018 53.2502535 -9.25044864 53.92516696 C-10.50402825 61.29889725 -11.43704593 68.72050237 -12.33192825 76.14474773 C-12.52274842 77.69236273 -12.71404953 79.23991848 -12.90578556 80.78742027 C-13.42201167 84.96634843 -13.93103377 89.14612419 -14.43845701 93.3261292 C-14.87012559 96.87521501 -15.30579217 100.4238056 -15.74144411 103.9724043 C-16.90496631 113.45050239 -18.06000201 122.92961637 -19.21070051 132.40927917 C-20.04558224 139.28697911 -20.88313145 146.16434983 -21.72197342 153.0415678 C-27.66872323 201.81486052 -33.49435867 250.59257796 -38.55653763 299.46701336 C-38.64544643 300.32520955 -38.73435524 301.18340574 -38.82595825 302.06760788 C-39.22478376 305.92520043 -39.62042845 309.78304853 -40.00725174 313.64186382 C-40.67312846 320.2071362 -41.37661437 326.76750164 -42.18446732 333.31686687 C-42.32914948 334.51172207 -42.47383163 335.70657726 -42.6228981 336.93764019 C-43.46733612 341.43304788 -45.01815122 344.85366644 -48.22230911 348.12863445 C-52.27604243 350.77237357 -56.57871304 351.92129947 -61.22230911 353.12863445 C-62.59761259 360.89933941 -62.59761259 360.89933941 -60.22230911 368.12863445 C-57.02232183 371.10807045 -54.85633294 371.49788682 -50.53578568 371.46921062 C-48.82446457 371.46887074 -48.82446457 371.46887074 -47.07857132 371.46852398 C-45.2393309 371.44529819 -45.2393309 371.44529819 -43.36293411 371.4216032 C-42.10341934 371.41735836 -40.84390457 371.41311352 -39.54622269 371.40874004 C-36.20542373 371.39479566 -32.86524328 371.36786371 -29.52461624 371.33462811 C-26.11270353 371.30388284 -22.70072681 371.29022524 -19.28871536 371.27511883 C-12.59974262 371.24203259 -5.91106157 371.19181969 0.77769089 371.12863445 C0.94210175 370.58939846 1.1065126 370.05016247 1.27590561 369.49458599 C2.03526663 367.01539256 2.80289964 364.5388329 3.57065964 362.0622282 C3.82907639 361.21414593 4.08749313 360.36606365 4.35374069 359.49228191 C11.80469106 335.56959463 28.71323295 317.93778975 50.52769089 306.37863445 C74.46368528 294.85290367 102.66738571 293.6873124 127.83359909 301.97653484 C150.05396096 309.88978453 168.8746226 326.20892619 179.77769089 347.12863445 C183.50787623 355.04501802 186.24953171 362.7014372 188.77769089 371.12863445 C287.77769089 371.12863445 386.77769089 371.12863445 488.77769089 371.12863445 C491.74769089 362.21863445 491.74769089 362.21863445 494.77769089 353.12863445 C496.15332001 350.00045864 497.4449278 347.1389777 499.09019089 344.19113445 C499.6597551 343.14796062 499.6597551 343.14796062 500.24082565 342.08371258 C511.40085894 322.24161015 530.96390796 307.10794466 552.90659714 300.9059782 C581.34418736 293.40923825 609.35215472 296.1570481 634.781353 310.96213055 C655.09219423 323.29608766 669.08475622 342.34698521 675.91831589 364.97238445 C676.44473679 366.70778484 676.44473679 366.70778484 676.98179245 368.47824383 C677.24443893 369.35287273 677.50708542 370.22750164 677.77769089 371.12863445 C682.65230564 371.22788268 687.52632586 371.30028026 692.40171432 371.34836102 C694.05839414 371.36841454 695.71500371 371.39566475 697.37144089 371.43039227 C699.75963846 371.47918957 702.14689636 371.50166509 704.53550339 371.51925945 C705.27011795 371.53990459 706.00473251 371.56054974 706.76160812 371.58182049 C711.93369019 371.58405192 714.78425766 370.36048567 718.77769089 367.12863445 C722.89475054 362.54549258 722.11737179 357.1263231 721.96519089 351.31613445 C721.94488815 349.84757 721.94488815 349.84757 721.92417526 348.34933758 C721.888944 345.9418682 721.83968354 343.53553881 721.77769089 341.12863445 C720.568228 341.1146159 720.568228 341.1146159 719.33433151 341.10031414 C715.64818504 341.04632406 711.96326848 340.96272997 708.27769089 340.87863445 C707.00925339 340.86445477 705.74081589 340.85027508 704.43394089 340.8356657 C697.1409971 340.64574529 691.92294054 340.18849253 685.77769089 336.12863445 C681.59397874 330.8721756 680.61229312 326.93625929 680.52769089 320.31613445 C680.50190964 319.11343914 680.47612839 317.91074383 680.44956589 316.6716032 C680.87089364 312.12226669 682.17718474 308.84317157 685.31284714 305.4841032 C690.17454425 301.76633482 692.42084249 300.99207117 698.53550339 300.8122282 C699.19855484 300.79144711 699.86160629 300.77066601 700.54475021 300.74925518 C702.66395783 300.68384215 704.78328989 300.6249134 706.90269089 300.56613445 C708.3389017 300.52294136 709.7750999 300.47932681 711.21128464 300.43527508 C714.73328682 300.32816946 718.25542913 300.2268787 721.77769089 300.12863445 C722.21555171 284.49603014 716.90287014 272.39329592 706.21519089 261.00363445 C694.30303195 249.87332141 680.59107596 243.9407115 665.37900925 238.66867352 C664.36002985 238.3151017 663.34105045 237.96152989 662.29119289 237.59724379 C639.86703308 230.00201994 618.77354645 228.96424299 595.29366803 229.43612862 C589.89530499 229.52540667 584.49696287 229.51609151 579.09798813 229.51809978 C568.95067487 229.53519323 558.8058417 229.62935259 548.65937704 229.75711465 C533.71069994 229.94236244 518.76132314 230.02137425 503.81167889 230.08319759 C502.71015234 230.08776714 501.60862579 230.09233669 500.47371966 230.09704471 C498.2782869 230.10605735 496.08285307 230.11481034 493.88741821 230.12329602 C487.50237566 230.15083678 481.11837921 230.2064629 474.73379242 230.28717184 C470.7860134 230.3344287 466.83820243 230.36612226 462.89024925 230.39477253 C461.06646037 230.41176793 459.24272103 230.43580265 457.41912842 230.46749973 C454.92596883 230.51016521 452.43377222 230.52787602 449.9403038 230.53995037 C449.2252584 230.5586247 448.51021299 230.57729904 447.77349955 230.59653926 C441.82557919 230.58264721 436.63666694 228.76057257 432.24365813 224.7164228 C428.13737893 220.04571972 426.5336757 215.76814551 426.50353622 209.62138653 C426.4935611 208.52671062 426.48358597 207.43203472 426.47330856 206.30418682 C426.47264389 205.1129269 426.47197922 203.92166698 426.4712944 202.69430828 C426.46297089 201.43192333 426.45464737 200.16953838 426.44607162 198.86889935 C426.42416699 195.41201371 426.41533274 191.95521651 426.41024518 188.49826932 C426.40659562 186.33476583 426.40035234 184.17128528 426.39324379 182.00779057 C426.36875946 174.44902186 426.35570043 166.89032164 426.35215378 159.33151531 C426.34852335 152.30423077 426.31866117 145.27738427 426.27674919 138.25023347 C426.24195808 132.20330221 426.22660379 126.15651544 426.22590774 120.10948485 C426.22511766 116.5040647 426.21650487 112.89909066 426.18791008 109.2937746 C426.15667502 105.26551788 426.16583088 101.2382919 426.17832565 97.20993328 C426.15607422 95.43822514 426.15607422 95.43822514 426.13337326 93.63072491 C426.19871315 86.21062092 427.33475152 80.23121959 431.77769089 74.12863445 C436.74667631 70.03462731 441.43082898 68.03281855 447.89170456 67.92331219 C449.45298332 67.89339436 449.45298332 67.89339436 451.04580307 67.86287212 C452.16775574 67.84615963 453.2897084 67.82944714 454.44565964 67.8122282 C455.59560913 67.79144711 456.74555862 67.77066601 457.93035507 67.74925518 C461.60857214 67.68380103 465.28686136 67.62489371 468.96519089 67.56613445 C471.45673485 67.52294532 473.94827148 67.4793309 476.43980026 67.43527508 C482.5523539 67.32812384 488.66497952 67.22634962 494.77769089 67.12863445 C493.82532734 65.85637588 492.87262469 64.58437116 491.91978073 63.31247234 C491.12403137 62.24990971 491.12403137 62.24990971 490.31220627 61.16588116 C480.80832036 47.37396391 480.80832036 47.37396391 466.72792506 39.81669247 C457.59526857 38.92436695 448.46914493 38.98933976 439.30436325 39.00165081 C437.43132362 39.0004974 435.55828421 38.99890839 433.68524528 38.99692357 C428.55869332 38.99276067 423.43216005 38.99480717 418.30560803 38.99790978 C412.76914549 39.00017599 407.23268612 38.99667823 401.69622421 38.99392986 C390.85946746 38.98948662 380.02271764 38.99044212 369.18596062 38.9933425 C360.38002709 38.99560174 351.57409551 38.9959068 342.76816177 38.99481869 C341.51443458 38.99466545 340.26070739 38.99451222 338.96898846 38.99435434 C336.42204446 38.99403462 333.87510045 38.99371041 331.32815644 38.99338175 C308.13546608 38.99061255 284.94277934 38.99348286 261.75008981 38.99872435 C240.58139101 39.00347203 219.41269823 39.00304311 198.24399948 38.99826336 C174.44962072 38.99290867 150.65524488 38.99080367 126.86086535 38.99387562 C124.32456255 38.99419417 121.78825975 38.99450854 119.25195694 38.99481869 C118.00404484 38.99497296 116.75613274 38.99512724 115.47040512 38.99528619 C106.67204808 38.99614999 97.87369317 38.99469144 89.07533646 38.99233913 C78.35776823 38.98953667 67.64020732 38.99028896 56.92263994 38.99561988 C51.45347254 38.99825049 45.98431737 38.9992727 40.51515007 38.99597073 C35.51043697 38.9929948 30.50574745 38.99462229 25.50103649 38.99994828 C23.68900532 39.00106688 21.87697217 39.00049358 20.06494227 38.99807249 C17.60425582 38.99503646 15.14365035 38.99814624 12.68296814 39.00279331 C11.97773307 39.00045215 11.27249801 38.99811098 10.54589218 38.99569887 C2.22602073 38.88777491 2.22602073 38.88777491 -5.05476856 42.26541615 Z M466.77769089 107.12863445 C466.77769089 135.17863445 466.77769089 163.22863445 466.77769089 192.12863445 C509.01769089 192.12863445 551.25769089 192.12863445 594.77769089 192.12863445 C583.32758063 176.86182078 571.62533653 161.81397016 559.55503464 147.03317547 C555.28604768 141.79054873 551.14894002 136.45964503 547.04722214 131.0856657 C543.69079004 126.71248309 540.2355773 122.4216591 536.77769089 118.12863445 C534.63238449 115.44044948 532.48799315 112.75153807 530.34409714 110.0622282 C528.92259094 108.23875514 528.92259094 108.23875514 527.77769089 107.12863445 C525.87525327 107.03472149 523.9693063 107.01119787 522.06455612 107.01510906 C520.82621017 107.01522991 519.58786423 107.01535076 518.31199265 107.01547527 C516.34401718 107.02314922 516.34401718 107.02314922 514.33628464 107.0309782 C512.53906967 107.03248882 512.53906967 107.03248882 510.70554733 107.03402996 C506.20875218 107.0392814 501.71197062 107.05324251 497.21519089 107.06613445 C487.17081589 107.08675945 477.12644089 107.10738445 466.77769089 107.12863445 Z M50.77769089 358.12863445 C42.33624709 370.28672106 36.90258075 384.18061863 39.25034714 399.1403532 C42.28440575 414.49232642 50.67658966 429.15832866 63.77769089 438.12863445 C71.44289385 442.63720401 79.78785744 447.3394506 88.77769089 448.12863445 C89.51503464 448.20855633 90.25237839 448.2884782 91.01206589 448.37082195 C105.34406535 449.16704415 119.42007498 443.02134098 130.02769089 433.75363445 C131.62911147 432.23076457 133.21371356 430.68993374 134.77769089 429.12863445 C135.42737839 428.49054852 136.07706589 427.85246258 136.74644089 427.1950407 C145.25708951 418.21779951 150.7128001 405.68143027 151.21519089 393.31613445 C150.77801325 377.83607161 143.44409968 364.83018792 132.77769089 354.12863445 C131.74321823 353.05935711 131.74321823 353.05935711 130.68784714 351.9684782 C120.84164991 342.45232111 107.23499717 336.648074 93.59019089 335.62863445 C76.86136081 336.35861977 61.17234378 345.27565583 50.77769089 358.12863445 Z M542.40659714 354.2341032 C536.0137687 361.27286379 531.78222079 369.14524104 528.77769089 378.12863445 C528.55210495 378.78218914 528.32651901 379.43574383 528.09409714 380.1091032 C524.42849514 392.3699099 527.36639481 405.06637502 532.59019089 416.44113445 C540.55048462 430.96789617 552.987472 441.59901262 568.77769089 446.56613445 C583.17546752 450.23274716 596.88484375 447.82707191 609.92612839 440.8591032 C625.67121517 431.30420807 635.37198033 417.93222378 639.77769089 400.12863445 C639.97749557 399.3809782 640.17730026 398.63332195 640.38315964 397.86300945 C642.59345217 386.39574921 636.9112196 373.73626433 630.90659714 364.2497282 C620.79531791 349.42603628 606.95492142 340.92294209 589.69956589 336.6091032 C572.10695717 333.71620097 554.61942584 341.9984196 542.40659714 354.2341032 Z " fill="#000000" transform="translate(208.22230911254883,31.871365547180176)"/>
<path d="M0 0 C1.16558945 -0.01283524 2.33117889 -0.02567047 3.53208923 -0.03889465 C4.79968582 -0.04628159 6.06728241 -0.05366852 7.37329102 -0.0612793 C9.3275576 -0.07338692 9.3275576 -0.07338692 11.32130432 -0.08573914 C14.08789948 -0.10077712 16.85446891 -0.11060615 19.62109375 -0.11816406 C23.13794991 -0.12915644 26.65416065 -0.16346569 30.17079067 -0.20333576 C33.55076254 -0.23605295 36.9306732 -0.24030457 40.31079102 -0.2487793 C41.56016953 -0.26628738 42.80954803 -0.28379547 44.0967865 -0.30183411 C56.34469991 -0.27182294 66.12160683 3.14910865 75.43969727 11.17700195 C84.12430801 19.98011616 88.52238179 31.48364371 88.68969727 43.73950195 C88.54491086 57.61004007 84.08284076 70.03933828 74.43969727 80.17700195 C72.78474589 81.52484895 71.11964289 82.86043891 69.43969727 84.17700195 C69.92438477 85.17965088 70.40907227 86.1822998 70.90844727 87.21533203 C72.71916622 90.97558528 74.50133391 94.74881127 76.27563477 98.52636719 C77.04407679 100.15237634 77.81998432 101.77488086 78.60375977 103.39355469 C87.34483729 121.47219909 87.34483729 121.47219909 85.43969727 130.17700195 C83.34373781 133.844931 81.35216637 135.70347463 77.43969727 137.17700195 C74.52083722 137.54659787 71.62930107 137.59288722 68.68969727 137.61450195 C67.91625977 137.64737305 67.14282227 137.68024414 66.34594727 137.71411133 C61.29989063 137.76067729 57.44479851 136.96714236 53.27514648 134.0390625 C49.37347577 130.08082327 47.50391204 124.91850105 45.37719727 119.86450195 C44.86769531 118.70708496 44.35819336 117.54966797 43.83325195 116.35717773 C42.34769407 112.97246379 40.89265609 109.57580517 39.43969727 106.17700195 C38.66806002 104.41912647 37.89367329 102.66245308 37.11547852 100.9074707 C35.53513557 97.33970934 33.97811523 93.76303257 32.43969727 90.17700195 C28.80969727 89.84700195 25.17969727 89.51700195 21.43969727 89.17700195 C21.68719727 91.49731445 21.68719727 91.49731445 21.93969727 93.86450195 C22.43036331 99.8449388 22.584718 105.80233632 22.62719727 111.80200195 C22.64008789 112.67171631 22.65297852 113.54143066 22.66625977 114.4375 C22.68952697 129.87092651 22.68952697 129.87092651 17.93969727 134.73950195 C13.44232768 137.32548947 9.80900607 137.42875066 4.68969727 137.48950195 C3.89047852 137.51850586 3.09125977 137.54750977 2.26782227 137.57739258 C-3.14770321 137.63528882 -6.3825075 136.9482752 -10.56030273 133.17700195 C-14.31767075 127.59820049 -14.00425371 122.16619019 -13.99609375 115.68310547 C-14.00616959 114.53279846 -14.01624542 113.38249146 -14.02662659 112.19732666 C-14.05509129 108.40008797 -14.06098221 104.6032469 -14.06420898 100.8059082 C-14.07384996 98.16324195 -14.08394243 95.52057731 -14.09446716 92.87791443 C-14.11362625 87.34078384 -14.11811713 81.80376082 -14.11621094 76.26660156 C-14.11440829 69.87701561 -14.14607865 63.48818922 -14.19344193 57.09879547 C-14.23747262 50.93818237 -14.24817321 44.77793256 -14.24638176 38.61717033 C-14.24992093 36.00209383 -14.26318524 33.38701164 -14.28637886 30.7720356 C-14.31578934 27.11414698 -14.3071449 23.45821338 -14.2890625 19.80029297 C-14.31435028 18.18307594 -14.31435028 18.18307594 -14.34014893 16.53318787 C-14.26236172 10.33766552 -13.45741588 6.86335769 -9.04249477 2.39727688 C-6.05038913 -0.06609588 -3.79814183 0.03636161 0 0 Z M22.43969727 33.17700195 C21.6081545 36.08244707 21.31131392 38.67025077 21.30688477 41.6887207 C21.3055957 42.52854492 21.30430664 43.36836914 21.30297852 44.23364258 C21.3068457 45.10182617 21.31071289 45.97000977 21.31469727 46.86450195 C21.31083008 47.74428711 21.30696289 48.62407227 21.30297852 49.53051758 C21.30426758 50.36647461 21.30555664 51.20243164 21.30688477 52.0637207 C21.3080127 52.829021 21.30914062 53.59432129 21.31030273 54.3828125 C21.24465534 56.20009722 21.24465534 56.20009722 22.43969727 57.17700195 C25.84817814 57.4569419 29.27109172 57.40884203 32.68969727 57.42700195 C33.64489258 57.44762695 34.60008789 57.46825195 35.58422852 57.48950195 C42.51061384 57.54348567 42.51061384 57.54348567 48.43969727 54.17700195 C51.42807705 51.02260107 53.3345219 48.59436736 53.43969727 44.17700195 C52.21471641 39.81300765 51.15055151 37.70849058 47.49829102 34.9777832 C42.67728256 32.38353818 37.84541397 32.73708584 32.50219727 32.92700195 C31.04716797 32.95407227 31.04716797 32.95407227 29.56274414 32.98168945 C27.18734832 33.02849528 24.81405883 33.0940381 22.43969727 33.17700195 Z " fill="#000000" transform="translate(323.560302734375,134.822998046875)"/>
<path d="M0 0 C0.67398834 -0.00700928 1.34797668 -0.01401855 2.04238892 -0.02124023 C4.25394802 -0.03873958 6.46421082 -0.02722786 8.67578125 -0.01367188 C10.22225183 -0.01636915 11.76872075 -0.02025353 13.31518555 -0.02526855 C16.54980684 -0.03115263 19.78398507 -0.02263642 23.01855469 -0.00390625 C27.15465058 0.01888328 31.28970815 0.00575424 35.42576599 -0.01819611 C38.61722569 -0.032684 41.80844119 -0.02803454 44.99990845 -0.01768494 C46.52446619 -0.01502588 48.04904646 -0.01825842 49.57357788 -0.02760315 C51.70849926 -0.037819 53.84176383 -0.02220127 55.9765625 0 C57.18868408 0.00318237 58.40080566 0.00636475 59.6496582 0.00964355 C64.73346937 0.78308919 67.79428588 3.32358275 71.36328125 6.89257812 C73.94540204 12.65269374 73.70318291 18.31193692 72.98828125 24.51757812 C70.75009366 29.71017334 67.18279599 32.4389504 61.98828125 34.51757812 C58.68366293 35.02986916 55.45466275 34.98627361 52.1171875 34.90820312 C51.19485825 34.90254333 50.27252899 34.89688354 49.32225037 34.89105225 C46.39788267 34.8687945 43.47477394 34.81861859 40.55078125 34.76757812 C38.55926258 34.74749939 36.56772456 34.72925103 34.57617188 34.71289062 C29.71267524 34.67237837 24.85187489 34.59406977 19.98828125 34.51757812 C19.98828125 40.78757813 19.98828125 47.05757812 19.98828125 53.51757812 C23.02273438 53.47117188 26.0571875 53.42476562 29.18359375 53.37695312 C32.13246998 53.34573083 35.08132757 53.32145824 38.03027344 53.29785156 C40.07495405 53.27777393 42.11957752 53.25050588 44.1640625 53.21582031 C47.10821662 53.16713294 50.05160959 53.14457069 52.99609375 53.12695312 C53.90569855 53.10630798 54.81530334 53.08566284 55.75247192 53.06439209 C61.35322195 53.06242551 64.54905274 53.7637867 68.98828125 57.51757812 C73.3221441 62.44921517 73.33440745 67.23273171 73.265625 73.56835938 C72.88901816 77.57312222 71.74804604 79.61256256 68.98828125 82.51757812 C64.33765412 86.10243653 60.76295204 87.64996342 54.95410156 87.63110352 C53.78334076 87.63099022 53.78334076 87.63099022 52.58892822 87.63087463 C51.75649597 87.62571335 50.92406372 87.62055206 50.06640625 87.61523438 C49.20642029 87.61381943 48.34643433 87.61240448 47.46038818 87.61094666 C44.71965016 87.60535909 41.97899449 87.59280887 39.23828125 87.58007812 C37.37760535 87.57506152 35.51692816 87.57049889 33.65625 87.56640625 C29.10022879 87.55539373 24.54426897 87.53813764 19.98828125 87.51757812 C19.98828125 92.46757812 19.98828125 97.41757813 19.98828125 102.51757812 C21.88719116 102.48615723 21.88719116 102.48615723 23.82446289 102.45410156 C28.54130653 102.38145671 33.25810113 102.33568938 37.9753418 102.29785156 C40.01318693 102.2777918 42.05097491 102.25053713 44.08862305 102.21582031 C47.02537172 102.16705379 49.96135643 102.14455272 52.8984375 102.12695312 C53.80288101 102.10630798 54.70732452 102.08566284 55.63917542 102.06439209 C61.62476478 102.0622902 65.06988953 103.06069994 69.98828125 106.51757812 C74.13802739 111.18734258 74.5583999 116.94646864 74.30859375 122.96679688 C73.70438965 127.77832468 72.07236988 130.51688093 68.55078125 133.76757812 C62.60015633 137.83141954 57.9016004 137.9817885 50.80078125 138.20507812 C49.07758667 138.26151489 49.07758667 138.26151489 47.31958008 138.3190918 C36.86101949 138.58861783 26.40419417 138.55002108 15.94418335 138.37442017 C14.1047739 138.34495798 12.26525573 138.32162104 10.4256897 138.30453491 C7.81423936 138.27703352 5.20460517 138.22319851 2.59375 138.16210938 C1.81349457 138.15768829 1.03323914 138.15326721 0.2293396 138.14871216 C-4.93583812 137.98766127 -7.8804289 136.86796059 -12.01171875 133.51757812 C-15.28140304 129.7969029 -16.13494758 126.68224556 -16.15216064 121.79338074 C-16.15787079 120.82188583 -16.16358093 119.85039093 -16.16946411 118.84945679 C-16.17058197 117.78498322 -16.17169983 116.72050964 -16.17285156 115.6237793 C-16.17781647 114.50156479 -16.18278137 113.37935028 -16.18789673 112.22312927 C-16.20252882 108.50226229 -16.2093221 104.78143793 -16.21484375 101.06054688 C-16.2205943 98.47845966 -16.22635204 95.89637246 -16.2321167 93.31428528 C-16.24128538 88.58907286 -16.2475845 83.86387753 -16.25061345 79.13865775 C-16.25509241 72.19004992 -16.27263389 65.24163897 -16.30161405 58.293091 C-16.32586098 52.26976048 -16.33355902 46.24652289 -16.335289 40.22313881 C-16.33831761 37.66307821 -16.34635311 35.10301849 -16.35947418 32.54298973 C-16.37651938 28.96169477 -16.37465784 25.38087956 -16.36816406 21.79956055 C-16.37737885 20.74115967 -16.38659363 19.68275879 -16.39608765 18.59228516 C-16.36549379 13.20895578 -16.29314631 9.02490616 -13.01171875 4.51757812 C-8.69114812 0.83601916 -5.61466963 0.01474107 0 0 Z " fill="#000000" transform="translate(439.01171875,134.482421875)"/>
<path d="M0 0 C0.67369629 -0.00686325 1.34739258 -0.0137265 2.04150391 -0.02079773 C4.26372489 -0.03906576 6.48523971 -0.03522789 8.70751953 -0.02954102 C10.25684844 -0.03410354 11.80617532 -0.03940933 13.35549927 -0.04542542 C16.60199201 -0.05435701 19.84823878 -0.0519338 23.09472656 -0.04199219 C27.24653652 -0.03051468 31.39749441 -0.05069415 35.54919243 -0.07990932 C38.74921019 -0.0982962 41.94902483 -0.09797377 45.14908218 -0.0922718 C46.67923298 -0.09211883 48.20939774 -0.09814383 49.73949814 -0.11056328 C51.88415953 -0.12551595 54.02726094 -0.11476685 56.171875 -0.09765625 C57.99910599 -0.097407 57.99910599 -0.097407 59.86325073 -0.09715271 C64.95987078 0.66489734 68.01443367 3.20315437 71.59033203 6.77905273 C74.17245282 12.53916835 73.93023369 18.19841153 73.21533203 24.40405273 C70.97714444 29.59664794 67.40984677 32.32542501 62.21533203 34.40405273 C58.91071371 34.91634377 55.68171353 34.87274822 52.34423828 34.79467773 C51.42190903 34.78901794 50.49957977 34.78335815 49.54930115 34.77752686 C46.62493345 34.75526911 43.70182472 34.7050932 40.77783203 34.65405273 C38.78631336 34.633974 36.79477534 34.61572564 34.80322266 34.59936523 C29.93972602 34.55885298 25.07892567 34.48054438 20.21533203 34.40405273 C20.21533203 40.67405273 20.21533203 46.94405273 20.21533203 53.40405273 C22.81666016 53.35764648 25.41798828 53.31124023 28.09814453 53.26342773 C30.63002575 53.23219296 33.16188513 53.20792761 35.69384766 53.18432617 C37.44752683 53.16426564 39.20113956 53.13701022 40.95458984 53.10229492 C43.48177521 53.05352971 46.00807294 53.03102882 48.53564453 53.01342773 C49.31400665 52.99278259 50.09236877 52.97213745 50.89431763 52.9508667 C56.13842257 52.94872657 59.03201857 53.97317951 63.21533203 57.40405273 C66.90541716 61.73035944 67.34637098 66.88403684 67.21533203 72.40405273 C66.39789984 77.08969081 65.18075131 80.41322768 61.84033203 83.84155273 C56.5948849 86.96384269 52.350242 87.68651071 46.28955078 87.59936523 C45.54195999 87.59653534 44.7943692 87.59370544 44.02412415 87.59078979 C41.65019323 87.57964742 39.27664778 87.55455435 36.90283203 87.52905273 C35.28760313 87.51901523 33.67236828 87.50989073 32.05712891 87.50170898 C28.10959742 87.48143404 24.16289321 87.44227549 20.21533203 87.40405273 C20.21533203 92.35405273 20.21533203 97.30405273 20.21533203 102.40405273 C21.45621582 102.38834229 22.69709961 102.37263184 23.97558594 102.35644531 C28.59368358 102.30201185 33.21175303 102.26765381 37.83007812 102.23925781 C39.82622044 102.22420175 41.82232984 102.20375247 43.81835938 102.17773438 C46.69295388 102.14121113 49.56710975 102.12429436 52.44189453 102.11108398 C53.77349106 102.0878582 53.77349106 102.0878582 55.13198853 102.06416321 C60.26209473 102.06278003 63.77219432 102.54787243 68.21533203 105.40405273 C72.40239552 109.70742355 73.97822657 113.84331375 74.52783203 119.77905273 C74.04192294 125.41559817 72.89033388 129.77199965 68.77783203 133.77905273 C64.14203094 136.71882904 61.31213956 137.65784879 55.72192383 137.69458008 C54.40342941 137.70733978 53.084935 137.72009949 51.72648621 137.73324585 C50.28917589 137.73630387 48.85186361 137.73853143 47.41455078 137.73999023 C45.93487927 137.74642065 44.45520903 137.7531492 42.97554016 137.76016235 C39.87453262 137.77213031 36.77363642 137.77584378 33.67260742 137.7746582 C29.7114913 137.77445526 25.7510946 137.80173348 21.79014874 137.83620262 C18.73337061 137.85851435 15.6767643 137.86249442 12.6199131 137.86143875 C11.16035297 137.86378921 9.7007877 137.87258137 8.24130821 137.88810349 C-6.24213034 138.02769467 -6.24213034 138.02769467 -11.78466797 133.40405273 C-15.90552913 128.57055484 -15.21367251 123.02362582 -15.1887207 117.0078125 C-15.19558395 115.85604523 -15.2024472 114.70427795 -15.20951843 113.51760864 C-15.22782064 109.71010004 -15.22394387 105.90300214 -15.21826172 102.09545898 C-15.22282183 99.44896816 -15.22812689 96.80247851 -15.23414612 94.1559906 C-15.24417172 88.60867383 -15.24088005 83.06147366 -15.23071289 77.51416016 C-15.21923331 71.10939742 -15.23330613 64.7050535 -15.26010936 58.30034596 C-15.28496289 52.12960833 -15.28744017 45.95906351 -15.28099251 39.78828239 C-15.28083906 37.16682171 -15.2869024 34.54535304 -15.29928398 31.92392159 C-15.31415548 28.25885967 -15.30354365 24.59472048 -15.28637695 20.9296875 C-15.29604492 19.8463765 -15.30571289 18.76306549 -15.31567383 17.64692688 C-15.24589904 10.53540007 -14.06852323 6.73068983 -8.95870972 1.55430603 C-5.90104753 -0.06345775 -3.45075848 0.01532547 0 0 Z " fill="#000000" transform="translate(533.78466796875,134.595947265625)"/>
<path d="M0 0 C1.30155029 -0.01260864 2.60310059 -0.02521729 3.9440918 -0.03820801 C5.35205633 -0.03104775 6.76001588 -0.02284365 8.16796875 -0.01367188 C9.62475849 -0.01636952 11.08154647 -0.02025421 12.53833008 -0.02526855 C15.58464784 -0.03115092 18.63049497 -0.02264217 21.67675781 -0.00390625 C25.57073938 0.01888342 29.46361805 0.00575343 33.3575592 -0.01819611 C36.36373115 -0.03268879 39.36964399 -0.02803241 42.37582397 -0.01768494 C43.81106702 -0.01502719 45.24633402 -0.01825378 46.68154907 -0.02760315 C48.69134029 -0.03782402 50.7012146 -0.019469 52.7109375 0 C54.42253052 0.00477356 54.42253052 0.00477356 56.16870117 0.00964355 C61.42745064 0.84782851 64.48350449 3.41614958 67.73046875 7.51757812 C70.81178112 13.48681505 70.17847823 20.68848305 68.35546875 26.95507812 C65.24839744 30.93601324 61.20806843 33.9464758 56.1730957 34.95449829 C53.85311234 35.09145508 51.58439249 35.081741 49.26171875 35.00585938 C48.42958862 34.99878464 47.5974585 34.9917099 46.7401123 34.98442078 C44.11094005 34.95667678 41.48398508 34.89398242 38.85546875 34.83007812 C37.06122892 34.80496913 35.26695533 34.78216055 33.47265625 34.76171875 C29.09874208 34.71118832 24.72955394 34.61331443 20.35546875 34.51757812 C20.35546875 41.44757813 20.35546875 48.37757813 20.35546875 55.51757812 C22.78921875 55.41058594 25.22296875 55.30359375 27.73046875 55.19335938 C30.11006205 55.10013122 32.48980187 55.01256944 34.86962891 54.92553711 C36.51277023 54.86243868 38.15569981 54.79352949 39.79833984 54.71850586 C42.17121858 54.61117164 44.54409486 54.52535009 46.91796875 54.44335938 C47.64226074 54.40600174 48.36655273 54.3686441 49.11279297 54.33015442 C54.52387754 54.17366729 58.41582402 55.26989324 63.35546875 57.51757812 C67.73644484 62.01384306 69.65509282 66.00638884 69.79296875 72.26757812 C69.6796733 78.07397008 68.6043409 82.40877868 64.35546875 86.51757812 C58.88507992 90.23834961 55.12148031 91.08291646 48.578125 90.90820312 C47.76677597 90.90254333 46.95542694 90.89688354 46.11949158 90.89105225 C43.55169325 90.86882733 40.9853386 90.81866047 38.41796875 90.76757812 C36.66733799 90.74749503 34.91668516 90.72924744 33.16601562 90.71289062 C28.89528497 90.66900857 24.62562082 90.60008088 20.35546875 90.51757812 C20.37641602 91.63729004 20.39736328 92.75700195 20.41894531 93.91064453 C20.49157301 98.08141189 20.53735086 102.25212381 20.57519531 106.42333984 C20.59525908 108.22551893 20.62251688 110.02763334 20.65722656 111.82958984 C20.70597704 114.42626949 20.72848957 117.02208541 20.74609375 119.61914062 C20.76673889 120.41937653 20.78738403 121.21961243 20.80865479 122.0440979 C20.8107628 127.34920993 19.8463762 130.29278214 16.35546875 134.51757812 C12.23406823 137.93761751 8.13864555 138.00467598 2.98046875 137.95507812 C2.25085938 137.97505859 1.52125 137.99503906 0.76953125 138.015625 C-4.80476833 138.01064795 -8.18626397 136.93042045 -12.64453125 133.51757812 C-16.05621548 127.50385049 -16.07249496 122.08459297 -16.03271484 115.27734375 C-16.0379718 114.165905 -16.04322876 113.05446625 -16.04864502 111.90934753 C-16.06181359 108.2473634 -16.05311768 104.58581643 -16.04296875 100.92382812 C-16.04499038 98.37227292 -16.04790256 95.82071827 -16.05166626 93.26916504 C-16.05608538 87.92628942 -16.04995942 82.58356947 -16.03564453 77.24072266 C-16.01931987 71.07684222 -16.02460912 64.91325954 -16.04112375 58.74938631 C-16.05641396 52.80292582 -16.05474998 46.85655728 -16.04597855 40.91007996 C-16.04397959 38.38714048 -16.04642509 35.86419339 -16.05341721 33.34126282 C-16.06104945 29.81324229 -16.04940171 26.28579074 -16.03271484 22.7578125 C-16.03878754 21.71864182 -16.04486023 20.67947113 -16.05111694 19.60881042 C-16.00054362 13.82698465 -15.67870758 9.51375007 -12.64453125 4.51757812 C-8.47578407 0.90080905 -5.45658643 0.01521819 0 0 Z " fill="#000000" transform="translate(233.64453125,134.482421875)"/>
<path d="M0 0 C7.34979674 5.57610762 11.58053594 13.19082658 14.4765625 21.87890625 C15.77246391 37.07376036 15.32578881 49.92148073 5.5390625 62.19140625 C-2.5125057 70.58127563 -13.23537127 74.89000738 -24.75415039 75.17163086 C-37.77376565 75.28204745 -47.78150058 73.0591808 -57.5234375 63.87890625 C-66.47860283 55.02391056 -68.77486059 46.14999658 -68.8984375 33.87890625 C-68.92208554 20.62469336 -66.37970819 11.78168925 -56.984375 2.07421875 C-40.91312068 -12.2623605 -17.30153094 -11.67244129 0 0 Z " fill="#000000" transform="translate(329.5234375,391.12109375)"/>
<path d="M0 0 C8.06956968 6.03566832 13.73416302 14.26232791 15.91015625 24.16796875 C16.19621849 26.38688396 16.33051978 28.54924 16.38671875 30.78515625 C16.42539062 31.51347656 16.4640625 32.24179687 16.50390625 32.9921875 C16.87708169 44.8301416 13.75558985 54.13295821 6.01171875 63.03515625 C-2.35477851 71.88902228 -11.88522089 75.81899777 -24.08837891 76.21142578 C-36.52563122 76.27455904 -47.20228262 73.4896589 -56.62109375 64.96875 C-66.49901643 54.38526142 -68.09331412 43.64964776 -67.890625 29.79296875 C-67.6692067 23.86424602 -66.4440861 19.01464933 -63.61328125 13.78515625 C-63.18917969 12.98980469 -62.76507812 12.19445312 -62.328125 11.375 C-56.79341967 2.14021311 -48.71232512 -2.97059131 -38.61328125 -6.21484375 C-38.02417969 -6.40820312 -37.43507813 -6.6015625 -36.828125 -6.80078125 C-23.83140177 -9.23050376 -11.10258358 -7.09380144 0 0 Z " fill="#000000" transform="translate(816.61328125,390.21484375)"/>
</svg>
